<?xml version="1.0" encoding="utf-8"?>
<!-- Generator: Adobe Illustrator 19.1.0, SVG Export Plug-In . SVG Version: 6.00 Build 0)  -->
<svg version="1.1" id="Layer_1" xmlns="http://www.w3.org/2000/svg" xmlns:xlink="http://www.w3.org/1999/xlink" x="0px" y="0px"
	 viewBox="0 0 2762.6 1690.8" style="enable-background:new 0 0 2762.6 1690.8;" xml:space="preserve">
<style type="text/css">
	.st0{fill:#009688;}
	.st1{fill:#863B96;}
	.st2{fill:#67C9CE;}
	.st3{fill:#F9A01B;}
	.st4{fill:#EF5451;}
	.st5{fill:#0A4D72;}
	.st6{fill:#FFFFFF;}
	.st7{font-family:'Raleway-Light';}
	.st8{font-size:98px;}
	.st9{fill:none;}
	.st10{font-family:'Raleway-Thin';}
	.st11{font-size:60px;}
	.st12{opacity:0.2;}
	.st13{opacity:0.2;fill:#2D3133;}
	.st14{font-size:36px;}
</style>
<g>
	<g>
		<path class="st0" d="M1414.6,535.9c86.8,10.7,161.1,61.7,203.5,133.8l200.2-5.3l105.7-174.2c-103.8-176.4-291-297.8-507.5-310
			l96,175.1L1414.6,535.9z"/>
		<path class="st1" d="M1635.3,704.2c13.3,32.3,20.7,67.7,20.7,104.8c0,50.4-13.6,97.7-37.3,138.3l104.7,170.7l203.8,4.5
			c53.1-92.3,83.4-199.4,83.4-313.5c0-102-24.3-198.3-67.3-283.5l-105.1,173.2L1635.3,704.2z"/>
		<path class="st2" d="M1161.1,643c49.4-65.2,127.1-107.6,214.8-109.1l96.9-178.6l-96.6-176.2c-217.4,1.5-408.6,113.2-520.7,282
			l196.7,4.3L1161.1,643z"/>
		<path class="st3" d="M1126,913.7c-13.3-32.3-20.7-67.6-20.7-104.7c0-48.5,12.6-94,34.6-133.6L1032.3,500l-198.3-4.3
			c-53,92.3-83.4,199.3-83.4,313.4c0,99.9,23.3,194.4,64.7,278.4l102-168.1L1126,913.7z"/>
		<path class="st4" d="M1341.5,1081.5c-84.6-12.1-156.8-62.6-198.3-133.3l-205.7,5.5l-102.9,169.5
			c102.3,177.4,288.5,300.2,504.4,314.3l-95.8-174.7L1341.5,1081.5z"/>
		<path class="st5" d="M1597.1,979.1c-50.4,64.1-128.6,105.2-216.4,105.2c-0.3,0-0.6,0-0.9,0l-96.8,178.5l96.7,176.2
			c0.3,0,0.7,0,1,0c219.3,0,412.3-112,525.2-282l-202.3-4.4L1597.1,979.1z"/>
	</g>
	<text transform="matrix(1 0 0 1 1672.9863 601.8739)" class="st6 st7 st8">02</text>
	<text transform="matrix(1 0 0 1 1786.8555 1044.6786)" class="st6 st7 st8">03</text>
	<text transform="matrix(1 0 0 1 1358.4272 1290.9769)" class="st6 st7 st8">04</text>
	<text transform="matrix(1 0 0 1 1083.4658 1279.661)" class="st6 st7 st8">05</text>
	<text transform="matrix(1 0 0 1 892.9951 641.6405)" class="st6 st7 st8">06</text>
	<text transform="matrix(1 0 0 1 1291.5869 397.8754)" class="st6 st7 st8">01</text>
	<rect x="1127.2" y="762.2" class="st9" width="506.7" height="74.1"/>
	<text transform="matrix(1 0 0 1 1156.8463 805.965)" class="st1 st10 st11">DEVELOPMENT</text>
	<g>
		<g>
			<g>
				<g>
					<path class="st6" d="M1200.8,492.4c-0.2,0.1-0.4,0.1-0.6,0l-51.2-38c-0.2-0.1-0.7-0.1-0.8,0c-0.2,0.1-0.6,0.3-0.6,0.5v53.7
						c0,1.1,1.5,2.3,2.6,2.3h100.3c1.1,0,1.4-1.1,1.4-2.3v-53.9c0-0.2,0.2-0.4,0-0.5c-0.2-0.1-0.2-0.1-0.4,0.1L1200.8,492.4z"/>
					<path class="st6" d="M1251.9,445.1v-0.7c0-1.1-0.3-1.5-1.4-1.5h-100.3c-1.1,0-2.6,0.3-2.6,1.5v0.9l52.3,33.8
						c0.2,0.1,0.2,0.1,0.4,0L1251.9,445.1z"/>
				</g>
			</g>
		</g>
	</g>
	<g id="_x32__7_">
		<g>
			<g>
				<g>
					<g class="st12">
						<path class="st6" d="M1629.3,291.4c0.2-0.3,0.5-0.3,0.6,0l14.4,29.1c0.2,0.3,0.6,0.7,1,0.7l32.1,4.7c0.4,0.1,0.5,0.3,0.2,0.6
							l-23.2,22.6c-0.3,0.3-0.5,0.8-0.4,1.2l5.5,32c0.1,0.4-0.2,0.5-0.5,0.4l-28.7-15.1c-0.3-0.2-0.9-0.2-1.2,0l-28.7,15.1
							c-0.3,0.2-0.6,0-0.5-0.4l5.5-32c0.1-0.4-0.1-0.9-0.4-1.2l-23.2-22.6c-0.3-0.3-0.2-0.5,0.2-0.6l32.1-4.7c0.4-0.1,0.8-0.4,1-0.7
							L1629.3,291.4z"/>
					</g>
				</g>
				<path class="st6" d="M1627.7,294.6c1.1-2.1,2.8-2.1,3.8,0l11.2,22.6c1,2.1,3.8,4.1,6.2,4.5l25,3.6c2.4,0.3,2.9,2,1.2,3.6
					l-18.1,17.6c-1.7,1.6-2.8,4.9-2.4,7.2l4.3,24.9c0.4,2.4-1,3.4-3.1,2.2l-22.3-11.7c-2.1-1.1-5.5-1.1-7.6,0l-22.3,11.7
					c-2.1,1.1-3.5,0.1-3.1-2.2l4.3-24.9c0.4-2.3-0.7-5.6-2.4-7.2l-18.1-17.6c-1.7-1.6-1.2-3.3,1.2-3.6l25-3.6
					c2.3-0.4,5.1-2.4,6.2-4.5L1627.7,294.6z"/>
			</g>
		</g>
	</g>
	<path class="st6" d="M1885.7,741c-22.6,0-40.9,15.9-40.9,35.5c0,19.6,18.3,35.5,40.9,35.5c2.8,0,5.7,0.2,8.2-0.7
		c14.5-5.1,3.6,23.2,3.6,23.2s17.2-17.5,24.8-35.5c3-7.2,4.3-14.9,4.3-22.5C1926.5,756.9,1908.2,741,1885.7,741z M1867.6,785.7
		c-3.4,0-6.2-2.8-6.2-6.2c0-3.4,2.8-6.1,6.2-6.1c3.4,0,6.2,2.8,6.2,6.1C1873.8,783,1871,785.7,1867.6,785.7z M1885.7,785.7
		c-3.4,0-6.1-2.8-6.1-6.2c0-3.4,2.7-6.1,6.1-6.1c3.4,0,6.2,2.8,6.2,6.1C1891.8,783,1889.1,785.7,1885.7,785.7z M1903.8,785.7
		c-3.4,0-6.1-2.8-6.1-6.2c0-3.4,2.7-6.1,6.1-6.1c3.4,0,6.2,2.8,6.2,6.1C1909.9,783,1907.2,785.7,1903.8,785.7z"/>
	<path class="st6" d="M1568.4,1160.6c-4.5,0-8.5,2-11.2,5.1l-22.9-12.1c0.9-2.6,1.5-5.4,1.5-8.3c0-3.4-0.7-6.7-2-9.6l17.9-10.7
		c1.9,1.6,4.3,2.6,7,2.6c6.1,0,11-4.9,11-11c0-6.1-4.9-11-11-11c-6.1,0-11,4.9-11,11c0,1,0.2,1.9,0.4,2.8l-17.7,10.6
		c-4.5-5.6-11.4-9.2-19.1-9.2c-13.6,0-24.6,11-24.6,24.6c0,13.6,11,24.6,24.6,24.6c8.2,0,15.5-4.1,19.9-10.3l22.9,12.1
		c-0.3,1.2-0.5,2.4-0.5,3.7c0,8.2,6.7,14.8,14.9,14.8c8.2,0,14.8-6.7,14.8-14.8C1583.2,1167.2,1576.6,1160.6,1568.4,1160.6z"/>
	<g>
		<g>
			<path class="st13" d="M915.8,785.7h-28.5l-3.5-8.6c-1.2-2.8-4.6-5.4-7.6-5.4h-21.9c-3,0-6.5,2.7-7.6,5.4l-3.5,8.6h-28.6
				c-3,0-5.5,2.5-5.5,5.5v62.1c0,3,2.5,5.5,5.5,5.5h101.4c3,0,5.5-2.5,5.5-5.5v-62.1C921.3,788.2,918.8,785.7,915.8,785.7z"/>
		</g>
		<path class="st6" d="M915.8,786.2h-28.5l-3.5-8.6c-1.2-2.8-4.6-5.4-7.6-5.4h-21.9c-3,0-6.5,2.7-7.6,5.4l-3.5,8.6h-28.6
			c-3,0-7.4,2-7.4,5v62.1c0,3,4.4,6,7.4,6h101.4c3,0,6.4-2.9,6.4-6v-62.1C922.2,788.2,918.8,786.2,915.8,786.2z M865.3,848.2
			c-15.1,0-27.4-12.3-27.4-27.4c0-15.1,12.3-27.4,27.4-27.4c15.1,0,27.4,12.3,27.4,27.4C892.7,835.9,880.4,848.2,865.3,848.2z"/>
		<path class="st6" d="M882.9,820.8c0,9.8-7.9,17.7-17.7,17.7c-9.7,0-17.6-7.9-17.6-17.7c0-9.8,7.9-17.7,17.6-17.7
			C875,803.1,882.9,811,882.9,820.8z"/>
	</g>
	<g>
		<circle class="st6" cx="1019.1" cy="1020.2" r="22.6"/>
		<path class="st6" d="M1040.4,1038.7h-0.4c-5,5.9-12.5,9.7-20.9,9.7s-15.8-3.8-20.9-9.7h-0.4c-10.2,0-18.6,8.4-18.6,18.6v27.5H993
			v-15.3c0-1.1,0.9-2,2-2c1.1,0,2,0.9,2,2v15.3h44.2v-15.3c0-1.1,0.9-2,2-2c1.1,0,2,0.9,2,2v15.3h13.7v-27.5
			C1059,1047.1,1050.6,1038.7,1040.4,1038.7z"/>
	</g>
	<rect x="1026.8" y="326.9" class="st9" width="240.3" height="94.9"/>
	<text transform="matrix(1 0 0 1 1069.2393 353.1972)"><tspan x="0" y="0" class="st6 st7 st14">Collect user </tspan><tspan x="89.7" y="43.2" class="st6 st7 st14">stories</tspan></text>
	<rect x="1547.6" y="424.9" class="st9" width="240.3" height="94.9"/>
	<text transform="matrix(1 0 0 1 1593.707 451.1972)"><tspan x="0" y="0" class="st6 st7 st14">Design new </tspan><tspan x="59.2" y="43.2" class="st6 st7 st14">features</tspan></text>
	<rect x="1667.7" y="858.8" class="st9" width="240.3" height="94.9"/>
	<text transform="matrix(1 0 0 1 1742.7784 885.0967)"><tspan x="0" y="0" class="st6 st7 st14">Feedback  </tspan><tspan x="-55.5" y="43.2" class="st6 st7 st14">and roadmap</tspan></text>
	<rect x="1499.4" y="1224.6" class="st9" width="240.3" height="94.9"/>
	<text transform="matrix(1 0 0 1 1499.4316 1250.9247)" class="st6 st7 st14">Development</text>
	<rect x="952.3" y="1129.8" class="st9" width="240.3" height="94.9"/>
	<text transform="matrix(1 0 0 1 994.0565 1156.0575)" class="st6 st7 st14">User testing</text>
	<rect x="762.8" y="699.2" class="st9" width="240.3" height="94.9"/>
	<text transform="matrix(1 0 0 1 871.8851 725.4312)" class="st6 st7 st14">Launch!</text>
	<text transform="matrix(1 0 0 1 1283.564 869.2709)" class="st1 st10 st11">CYCLE</text>
</g>
</svg>
