<?xml version="1.0" encoding="utf-8"?>
<!-- Generator: Adobe Illustrator 19.1.0, SVG Export Plug-In . SVG Version: 6.00 Build 0)  -->
<svg version="1.1" id="Layer_1" xmlns="http://www.w3.org/2000/svg" xmlns:xlink="http://www.w3.org/1999/xlink" x="0px" y="0px"
	 viewBox="-728 1027.8 1421.7 827.2" style="enable-background:new -728 1027.8 1421.7 827.2;" xml:space="preserve">
<style type="text/css">
	.st0{fill:#C9C9C9;}
	.st1{fill:#863B96;}
	.st2{fill:#F9A01B;}
	.st3{fill:#009688;}
	.st4{fill:#EF5451;}
	.st5{fill:none;}
	.st6{fill:#FFFFFF;}
	.st7{font-family:'Raleway-Light';}
	.st8{font-size:24px;}
	.st9{fill:none;stroke:#515151;stroke-width:0.5;stroke-miterlimit:10;}
	.st10{fill:#515151;}
	.st11{font-size:18px;}
</style>
<circle class="st0" cx="34.3" cy="1466.2" r="275"/>
<g>
	<path class="st1" d="M247.1,1368c12.1,14.8,23.3,30.5,33.4,46.9l-0.2,0.1c-16.5,10.1-32.2,21.3-47,33.4
		c-11.7,9.6-11.8,20.9-1.2,25.2c8.2,3.4,15.2,6.6,19.1,8.2c13.1,5.4,18.1,23.7,11,40.9c-7.1,17.2-23.5,26.7-36.6,21.3
		c-5.6-2.3-16.1-13.3-25.6-26.5c-8.9-12.3-22.6-14.2-32-2.3c-9.9,12.6-19,25.8-27.5,39.6l0,0c-10.1-16.5-21.2-32.1-33.4-47
		c-9.6-11.7-20.8-11.8-25.2-1.2c-3.4,8.2-6.6,15.2-8.2,19.1c-5.4,13.1-23.7,18.1-40.9,11s-26.7-23.5-21.3-36.6
		c2.3-5.6,13.3-16.1,26.5-25.6c12.3-8.9,14.2-22.6,2.3-32c-12.6-9.9-25.8-19-39.6-27.5v-0.1c8.4-13.8,17.6-27,27.5-39.6
		c9.3-11.9,23.1-10,32,2.3c9.5,13.2,20,24.2,25.6,26.5c13.2,5.4,29.5-4.2,36.6-21.3c7-17.2,2.1-35.5-11-40.9
		c-3.8-1.6-10.9-4.8-19.1-8.2c-10.6-4.3-10.6-15.6,1.2-25.2c14.8-12.2,30.5-23.3,47-33.4l0.3-0.1c13.8,8.4,27,17.6,39.6,27.5
		c12,9.3,10,23-2.3,32c-13.2,9.5-24.2,20-26.5,25.6c-5.4,13.2,4.2,29.6,21.3,36.6c17.2,7,35.5,2.1,40.9-11
		c1.6-3.8,4.8-10.9,8.2-19.1C226.2,1356.2,237.5,1356.3,247.1,1368z"/>
	<path class="st2" d="M-245.7,1462c-12.1-14.8-23.3-30.5-33.4-46.9l0.2-0.1c16.5-10.1,32.2-21.3,47-33.4
		c11.7-9.6,11.8-20.9,1.2-25.2c-8.2-3.4-15.2-6.6-19.1-8.2c-13.1-5.4-18.1-23.7-11-40.9s23.5-26.7,36.6-21.3
		c5.6,2.3,16.1,13.3,25.6,26.5c8.9,12.3,22.6,14.2,32,2.3c9.9-12.6,19-25.8,27.5-39.6l0,0c10.1,16.5,21.2,32.2,33.4,47
		c9.6,11.7,20.8,11.8,25.2,1.2c3.4-8.2,6.6-15.2,8.2-19.1c5.4-13.1,23.7-18.1,40.9-11s26.7,23.5,21.3,36.6
		c-2.3,5.6-13.3,16.1-26.5,25.6c-12.3,8.9-14.2,22.6-2.3,32c12.6,9.9,25.8,19,39.6,27.5v0.1c-8.4,13.8-17.6,27-27.5,39.6
		c-9.3,11.9-23.1,10-32-2.3c-9.5-13.2-20-24.2-25.6-26.5c-13.2-5.4-29.5,4.2-36.6,21.3c-7,17.2-2.1,35.5,11,40.9
		c3.8,1.6,10.9,4.8,19.1,8.2c10.6,4.3,10.6,15.6-1.2,25.2c-14.8,12.2-30.5,23.3-47,33.4l-0.3,0.1c-13.8-8.4-27-17.6-39.6-27.5
		c-12-9.3-10-23,2.3-32c13.2-9.5,24.2-20,26.5-25.6c5.4-13.2-4.2-29.6-21.3-36.6c-17.2-7-35.5-2.1-40.9,11
		c-1.6,3.8-4.8,10.9-8.2,19.1C-224.8,1473.8-236,1473.8-245.7,1462z"/>
	<path class="st3" d="M-46.3,1168.6c14.8-12.1,30.5-23.3,46.9-33.4l0.1,0.2c10.1,16.5,21.3,32.2,33.4,47
		c9.6,11.7,20.9,11.8,25.2,1.2c3.4-8.2,6.6-15.2,8.2-19.1c5.4-13.1,23.7-18.1,40.9-11c17.2,7.1,26.7,23.5,21.3,36.6
		c-2.3,5.6-13.3,16.1-26.5,25.6c-12.3,8.9-14.2,22.6-2.3,32c12.6,9.9,25.8,19,39.6,27.5l0,0c-16.5,10.1-32.1,21.2-47,33.4
		c-11.8,9.6-11.8,20.8-1.2,25.2c8.2,3.4,15.2,6.6,19.1,8.2c13.1,5.4,18.1,23.7,11,40.9c-7.1,17.2-23.5,26.7-36.6,21.3
		c-5.6-2.3-16.1-13.3-25.6-26.5c-8.9-12.3-22.6-14.2-32-2.3c-9.9,12.6-19,25.8-27.5,39.6H0.6c-13.8-8.4-27-17.6-39.6-27.5
		c-11.9-9.3-10-23.1,2.3-32c13.2-9.5,24.2-20,26.5-25.6c5.4-13.2-4.2-29.5-21.3-36.6c-17.2-7-35.5-2.1-40.9,11
		c-1.6,3.8-4.8,10.9-8.2,19.1c-4.3,10.6-15.6,10.6-25.2-1.2c-12.2-14.8-23.3-30.5-33.4-47l-0.1-0.3c8.4-13.8,17.6-27,27.5-39.6
		c9.3-12,23-10,32,2.3c9.5,13.2,20,24.2,25.6,26.5c13.2,5.4,29.6-4.2,36.6-21.3c7-17.2,2.1-35.5-11-40.9c-3.8-1.6-10.9-4.8-19.1-8.2
		C-58.1,1189.5-58,1178.2-46.3,1168.6z"/>
	<path class="st4" d="M47.8,1661.3c-14.8,12.1-30.5,23.3-46.9,33.4l-0.1-0.2c-10.1-16.5-21.3-32.2-33.4-47
		c-9.6-11.7-20.9-11.8-25.2-1.2c-3.4,8.2-6.6,15.2-8.2,19.1c-5.4,13.2-23.7,18.1-40.9,11s-26.7-23.5-21.3-36.6
		c2.3-5.6,13.3-16.1,26.5-25.6c12.3-8.9,14.2-22.6,2.3-32c-12.6-9.9-25.8-19-39.6-27.5l0,0c16.5-10.1,32.1-21.2,47-33.4
		c11.7-9.6,11.8-20.8,1.2-25.2c-8.2-3.4-15.2-6.6-19.1-8.2c-13.1-5.4-18.1-23.7-11-40.9c7.1-17.2,23.5-26.7,36.6-21.3
		c5.6,2.3,16.1,13.3,25.6,26.5c8.9,12.3,22.6,14.2,32,2.3c9.9-12.6,19-25.8,27.5-39.6h0.1c13.8,8.4,27,17.6,39.6,27.5
		c11.9,9.3,10,23.1-2.3,32c-13.2,9.5-24.2,20-26.5,25.6c-5.4,13.2,4.2,29.5,21.3,36.6c17.2,7,35.5,2.1,40.9-11
		c1.6-3.8,4.8-10.9,8.2-19.1c4.3-10.6,15.6-10.6,25.2,1.2c12.2,14.8,23.3,30.5,33.4,47l0.1,0.3c-8.4,13.8-17.6,27-27.5,39.6
		c-9.3,12-23,10-32-2.3c-9.5-13.2-20-24.2-25.6-26.5c-13.2-5.4-29.5,4.2-36.6,21.3c-7,17.2-2.1,35.5,11,40.9
		c3.8,1.6,10.9,4.8,19.1,8.2C59.6,1640.5,59.5,1651.7,47.8,1661.3z"/>
</g>
<rect x="-121.4" y="1266.1" class="st5" width="240.3" height="94.9"/>
<text transform="matrix(1 0 0 1 -36.6826 1283.6326)" class="st6 st7 st8">authentication</text>
<rect x="-298.8" y="1385" class="st5" width="240.3" height="94.9"/>
<text transform="matrix(1 0 0 1 -206.1306 1402.5659)" class="st6 st7 st8">management</text>
<rect x="-51" y="1427.8" class="st5" width="240.3" height="94.9"/>
<text transform="matrix(1 0 0 1 88.8755 1445.3186)" class="st6 st7 st8">reporting  </text>
<text transform="matrix(1 0 0 1 116.0754 1474.1187)" class="st6 st7 st8">&amp; stats</text>
<rect x="-215.3" y="1543.8" class="st5" width="240.3" height="94.9"/>
<text transform="matrix(1 0 0 1 -110.85 1561.3318)" class="st6 st7 st8">DOI creation </text>
<text transform="matrix(1 0 0 1 -53.05 1590.1316)" class="st6 st7 st8">tools   , </text>
<rect x="34.3" y="1608.6" class="st5" width="240.3" height="94.9"/>
<text transform="matrix(1 0 0 1 130.8806 1626.1401)" class="st6 st7 st8">new </text>
<text transform="matrix(1 0 0 1 106.3806 1654.9402)" class="st6 st7 st8">interface</text>
<line class="st9" x1="35.3" y1="1236.7" x2="159.9" y2="1105.4"/>
<rect x="170.6" y="1096.4" class="st5" width="240.3" height="94.9"/>
<text transform="matrix(1 0 0 1 170.6194 1109.5015)" class="st10 st7 st11">Single sign-on </text>
<text transform="matrix(1 0 0 1 170.6194 1131.1016)" class="st10 st7 st11">Granularity </text>
<text transform="matrix(1 0 0 1 170.6194 1152.7017)" class="st10 st7 st11">Access to services</text>
<line class="st9" x1="212.3" y1="1432.5" x2="336.9" y2="1301.1"/>
<rect x="344.9" y="1291.9" class="st5" width="240.3" height="94.9"/>
<text transform="matrix(1 0 0 1 344.8829 1305.0745)" class="st10 st7 st11">Track usage </text>
<text transform="matrix(1 0 0 1 344.8829 1326.6746)" class="st10 st7 st11">Generate reports </text>
<text transform="matrix(1 0 0 1 344.8829 1348.2744)" class="st10 st7 st11">Support persistency</text>
<line class="st9" x1="-191.8" y1="1760.4" x2="-67.3" y2="1629"/>
<rect x="-441.4" y="1708.5" class="st5" width="240.3" height="94.9"/>
<text transform="matrix(1 0 0 1 -318.1353 1721.6299)" class="st10 st7 st11">Web interface </text>
<text transform="matrix(1 0 0 1 -335.1353 1743.2297)" class="st10 st7 st11">Simple interface </text>
<text transform="matrix(1 0 0 1 -333.0353 1764.8298)" class="st10 st7 st11">Manual creation</text>
<rect x="-594.8" y="1484.5" class="st5" width="240.3" height="94.9"/>
<text transform="matrix(1 0 0 1 -452.6857 1497.6106)" class="st10 st7 st11">Data Center  </text>
<text transform="matrix(1 0 0 1 -465.1857 1519.2104)" class="st10 st7 st11">management </text>
<text transform="matrix(1 0 0 1 -499.8857 1540.8105)" class="st10 st7 st11">Easy-to-use tools </text>
<line class="st9" x1="-346.9" y1="1531.9" x2="-222.3" y2="1400.6"/>
</svg>
