<?xml version="1.0" encoding="utf-8"?>
<!-- Generator: Adobe Illustrator 19.1.0, SVG Export Plug-In . SVG Version: 6.00 Build 0)  -->
<svg version="1.1" id="Layer_1" xmlns="http://www.w3.org/2000/svg" xmlns:xlink="http://www.w3.org/1999/xlink" x="0px" y="0px"
	 viewBox="0 0 1421.7 827.2" style="enable-background:new 0 0 1421.7 827.2;" xml:space="preserve">
<style type="text/css">
	.st0{fill:#C9C9C9;}
	.st1{fill:#863B96;}
	.st2{fill:#F9A01B;}
	.st3{fill:#009688;}
	.st4{fill:#EF5451;}
	.st5{fill:none;}
	.st6{fill:#FFFFFF;}
	.st7{font-family:'Raleway-Light';}
	.st8{font-size:24px;}
	.st9{fill:none;stroke:#515151;stroke-width:0.5;stroke-miterlimit:10;}
	.st10{fill:#515151;}
	.st11{font-size:18px;}
</style>
<circle class="st0" cx="762.3" cy="438.4" r="275"/>
<g>
	<path class="st1" d="M975.1,340.2c12.1,14.8,23.3,30.5,33.4,46.9l-0.2,0.1c-16.5,10.1-32.2,21.3-47,33.4
		c-11.7,9.6-11.8,20.9-1.2,25.2c8.2,3.4,15.2,6.6,19.1,8.2c13.1,5.4,18.1,23.7,11,40.9c-7.1,17.2-23.5,26.7-36.6,21.3
		c-5.6-2.3-16.1-13.3-25.6-26.5c-8.9-12.3-22.6-14.2-32-2.3c-9.9,12.6-19,25.8-27.5,39.6l0,0c-10.1-16.5-21.2-32.1-33.4-47
		c-9.6-11.7-20.8-11.8-25.2-1.2c-3.4,8.2-6.6,15.2-8.2,19.1c-5.4,13.1-23.7,18.1-40.9,11c-17.2-7.1-26.7-23.5-21.3-36.6
		c2.3-5.6,13.3-16.1,26.5-25.6c12.3-8.9,14.2-22.6,2.3-32c-12.6-9.9-25.8-19-39.6-27.5l0-0.1c8.4-13.8,17.6-27,27.5-39.6
		c9.3-11.9,23.1-10,32,2.3c9.5,13.2,20,24.2,25.6,26.5c13.2,5.4,29.5-4.2,36.6-21.3c7-17.2,2.1-35.5-11-40.9
		c-3.8-1.6-10.9-4.8-19.1-8.2c-10.6-4.3-10.6-15.6,1.2-25.2c14.8-12.2,30.5-23.3,47-33.4l0.3-0.1c13.8,8.4,27,17.6,39.6,27.5
		c12,9.3,10,23-2.3,32c-13.2,9.5-24.2,20-26.5,25.6c-5.4,13.2,4.2,29.6,21.3,36.6c17.2,7,35.5,2.1,40.9-11
		c1.6-3.8,4.8-10.9,8.2-19.1C954.2,328.4,965.5,328.5,975.1,340.2z"/>
	<path class="st2" d="M482.3,434.2c-12.1-14.8-23.3-30.5-33.4-46.9l0.2-0.1c16.5-10.1,32.2-21.3,47-33.4
		c11.7-9.6,11.8-20.9,1.2-25.2c-8.2-3.4-15.2-6.6-19.1-8.2c-13.1-5.4-18.1-23.7-11-40.9c7.1-17.2,23.5-26.7,36.6-21.3
		c5.6,2.3,16.1,13.3,25.6,26.5c8.9,12.3,22.6,14.2,32,2.3c9.9-12.6,19-25.8,27.5-39.6l0,0c10.1,16.5,21.2,32.2,33.4,47
		c9.6,11.7,20.8,11.8,25.2,1.2c3.4-8.2,6.6-15.2,8.2-19.1c5.4-13.1,23.7-18.1,40.9-11c17.2,7.1,26.7,23.5,21.3,36.6
		c-2.3,5.6-13.3,16.1-26.5,25.6c-12.3,8.9-14.2,22.6-2.3,32c12.6,9.9,25.8,19,39.6,27.5l0,0.1c-8.4,13.8-17.6,27-27.5,39.6
		c-9.3,11.9-23.1,10-32-2.3c-9.5-13.2-20-24.2-25.6-26.5c-13.2-5.4-29.5,4.2-36.6,21.3c-7,17.2-2.1,35.5,11,40.9
		c3.8,1.6,10.9,4.8,19.1,8.2c10.6,4.3,10.6,15.6-1.2,25.2c-14.8,12.2-30.5,23.3-47,33.4l-0.3,0.1c-13.8-8.4-27-17.6-39.6-27.5
		c-12-9.3-10-23,2.3-32c13.2-9.5,24.2-20,26.5-25.6c5.4-13.2-4.2-29.6-21.3-36.6c-17.2-7-35.5-2.1-40.9,11
		c-1.6,3.8-4.8,10.9-8.2,19.1C503.2,446,492,446,482.3,434.2z"/>
	<path class="st3" d="M681.7,140.8c14.8-12.1,30.5-23.3,46.9-33.4l0.1,0.2c10.1,16.5,21.3,32.2,33.4,47c9.6,11.7,20.9,11.8,25.2,1.2
		c3.4-8.2,6.6-15.2,8.2-19.1c5.4-13.1,23.7-18.1,40.9-11c17.2,7.1,26.7,23.5,21.3,36.6c-2.3,5.6-13.3,16.1-26.5,25.6
		c-12.3,8.9-14.2,22.6-2.3,32c12.6,9.9,25.8,19,39.6,27.5l0,0c-16.5,10.1-32.1,21.2-47,33.4c-11.8,9.6-11.8,20.8-1.2,25.2
		c8.2,3.4,15.2,6.6,19.1,8.2c13.1,5.4,18.1,23.7,11,40.9c-7.1,17.2-23.5,26.7-36.6,21.3c-5.6-2.3-16.1-13.3-25.6-26.5
		c-8.9-12.3-22.6-14.2-32-2.3c-9.9,12.6-19,25.8-27.5,39.6l-0.1,0c-13.8-8.4-27-17.6-39.6-27.5c-11.9-9.3-10-23.1,2.3-32
		c13.2-9.5,24.2-20,26.5-25.6c5.4-13.2-4.2-29.5-21.3-36.6c-17.2-7-35.5-2.1-40.9,11c-1.6,3.8-4.8,10.9-8.2,19.1
		c-4.3,10.6-15.6,10.6-25.2-1.2c-12.2-14.8-23.3-30.5-33.4-47l-0.1-0.3c8.4-13.8,17.6-27,27.5-39.6c9.3-12,23-10,32,2.3
		c9.5,13.2,20,24.2,25.6,26.5c13.2,5.4,29.6-4.2,36.6-21.3c7-17.2,2.1-35.5-11-40.9c-3.8-1.6-10.9-4.8-19.1-8.2
		C669.9,161.7,670,150.4,681.7,140.8z"/>
	<path class="st4" d="M775.8,633.5c-14.8,12.1-30.5,23.3-46.9,33.4l-0.1-0.2c-10.1-16.5-21.3-32.2-33.4-47
		c-9.6-11.7-20.9-11.8-25.2-1.2c-3.4,8.2-6.6,15.2-8.2,19.1c-5.4,13.2-23.7,18.1-40.9,11c-17.2-7.1-26.7-23.5-21.3-36.6
		c2.3-5.6,13.3-16.1,26.5-25.6c12.3-8.9,14.2-22.6,2.3-32c-12.6-9.9-25.8-19-39.6-27.5l0,0c16.5-10.1,32.1-21.2,47-33.4
		c11.7-9.6,11.8-20.8,1.2-25.2c-8.2-3.4-15.2-6.6-19.1-8.2c-13.1-5.4-18.1-23.7-11-40.9c7.1-17.2,23.5-26.7,36.6-21.3
		c5.6,2.3,16.1,13.3,25.6,26.5c8.9,12.3,22.6,14.2,32,2.3c9.9-12.6,19-25.8,27.5-39.6l0.1,0c13.8,8.4,27,17.6,39.6,27.5
		c11.9,9.3,10,23.1-2.3,32c-13.2,9.5-24.2,20-26.5,25.6c-5.4,13.2,4.2,29.5,21.3,36.6c17.2,7,35.5,2.1,40.9-11
		c1.6-3.8,4.8-10.9,8.2-19.1c4.3-10.6,15.6-10.6,25.2,1.2c12.2,14.8,23.3,30.5,33.4,47l0.1,0.3c-8.4,13.8-17.6,27-27.5,39.6
		c-9.3,12-23,10-32-2.3c-9.5-13.2-20-24.2-25.6-26.5c-13.2-5.4-29.5,4.2-36.6,21.3c-7,17.2-2.1,35.5,11,40.9
		c3.8,1.6,10.9,4.8,19.1,8.2C787.6,612.7,787.5,623.9,775.8,633.5z"/>
</g>
<rect x="606.6" y="238.3" class="st5" width="240.3" height="94.9"/>
<text transform="matrix(1 0 0 1 691.3173 255.8325)" class="st6 st7 st8">authentication</text>
<rect x="429.2" y="357.2" class="st5" width="240.3" height="94.9"/>
<text transform="matrix(1 0 0 1 521.8693 374.7659)" class="st6 st7 st8">management</text>
<rect x="677" y="400" class="st5" width="240.3" height="94.9"/>
<text transform="matrix(1 0 0 1 816.8754 417.5185)"><tspan x="0" y="0" class="st6 st7 st8">reporting  </tspan><tspan x="27.2" y="28.8" class="st6 st7 st8">&amp; stats</tspan></text>
<rect x="512.7" y="516" class="st5" width="240.3" height="94.9"/>
<text transform="matrix(1 0 0 1 617.15 533.5316)"><tspan x="0" y="0" class="st6 st7 st8">DOI creation </tspan><tspan x="57.8" y="28.8" class="st6 st7 st8">tools   , </tspan></text>
<rect x="762.3" y="580.8" class="st5" width="240.3" height="94.9"/>
<text transform="matrix(1 0 0 1 858.8807 598.3401)"><tspan x="0" y="0" class="st6 st7 st8">new </tspan><tspan x="-24.5" y="28.8" class="st6 st7 st8">interface</tspan></text>
<line class="st9" x1="763.3" y1="208.9" x2="887.9" y2="77.6"/>
<rect x="898.6" y="68.6" class="st5" width="240.3" height="94.9"/>
<text transform="matrix(1 0 0 1 898.6193 81.7015)"><tspan x="0" y="0" class="st10 st7 st11">Single Sing-on </tspan><tspan x="0" y="21.6" class="st10 st7 st11">Granularity </tspan><tspan x="0" y="43.2" class="st10 st7 st11">Access to services</tspan></text>
<line class="st9" x1="940.3" y1="404.7" x2="1064.9" y2="273.3"/>
<rect x="1072.9" y="264.1" class="st5" width="240.3" height="94.9"/>
<text transform="matrix(1 0 0 1 1072.8829 277.2744)"><tspan x="0" y="0" class="st10 st7 st11">Track usage </tspan><tspan x="0" y="21.6" class="st10 st7 st11">Generate reports </tspan><tspan x="0" y="43.2" class="st10 st7 st11">Support persistency</tspan></text>
<line class="st9" x1="536.2" y1="732.6" x2="660.7" y2="601.2"/>
<rect x="286.6" y="680.7" class="st5" width="240.3" height="94.9"/>
<text transform="matrix(1 0 0 1 409.8647 693.8298)"><tspan x="0" y="0" class="st10 st7 st11">Web interface </tspan><tspan x="-17" y="21.6" class="st10 st7 st11">Simple interface </tspan><tspan x="-14.9" y="43.2" class="st10 st7 st11">Manual creation</tspan></text>
<rect x="133.2" y="456.7" class="st5" width="240.3" height="94.9"/>
<text transform="matrix(1 0 0 1 275.3143 469.8105)"><tspan x="0" y="0" class="st10 st7 st11">Data Center  </tspan><tspan x="-12.5" y="21.6" class="st10 st7 st11">management </tspan><tspan x="-47.2" y="43.2" class="st10 st7 st11">Easy-to-use tools </tspan></text>
<line class="st9" x1="381.1" y1="504.1" x2="505.7" y2="372.8"/>
</svg>
