<?xml version="1.0" encoding="utf-8"?>
<!-- Generator: Adobe Illustrator 19.1.0, SVG Export Plug-In . SVG Version: 6.00 Build 0)  -->
<svg version="1.1" id="Layer_1" xmlns="http://www.w3.org/2000/svg" xmlns:xlink="http://www.w3.org/1999/xlink" x="0px" y="0px"
	 viewBox="0 0 2752.6 2102.9" style="enable-background:new 0 0 2752.6 2102.9;" xml:space="preserve">
<style type="text/css">
	.st0{opacity:0.6;}
	.st1{fill:none;stroke:#221913;stroke-width:2;stroke-miterlimit:10;}
	.st2{fill:#221913;}
	.st3{fill:none;stroke:#8A8F95;stroke-width:2;stroke-miterlimit:10;}
	.st4{fill:#8A8F95;}
	.st5{fill:#00549F;}
	.st6{fill:#542D7C;}
	.st7{fill:#CF2032;}
	.st8{fill:#FCB316;}
	.st9{fill:#EBE721;}
	.st10{fill:#6FBF47;}
	.st11{fill:#07A27C;}
	.st12{fill:none;stroke:#8A8F95;stroke-linecap:round;stroke-miterlimit:10;}
	.st13{fill:none;stroke:#8A8F95;stroke-linecap:round;stroke-miterlimit:10;stroke-dasharray:0,1.9958;}
	.st14{font-family:'Raleway-Light';}
	.st15{font-size:130.2px;}
	.st16{letter-spacing:6;}
	.st17{fill:none;}
	.st18{font-size:107.2013px;}
	.st19{letter-spacing:5;}
	.st20{font-size:59.5563px;}
	.st21{letter-spacing:2;}
	.st22{font-size:29.7781px;}
	.st23{fill:#C9C9C9;}
	.st24{opacity:0.1;fill:#BBC7CC;}
	.st25{fill:#1A4175;}
	.st26{fill:#486AAC;}
	.st27{fill:#0D7B5E;}
	.st28{fill:#5BB091;}
	.st29{fill:#9C1C28;}
	.st30{fill:#D7574D;}
	.st31{fill:#549040;}
	.st32{fill:#8DC968;}
	.st33{fill:none;stroke:#221913;stroke-width:8;stroke-miterlimit:10;}
	.st34{fill:none;stroke:#221913;stroke-width:8;stroke-linecap:round;stroke-miterlimit:10;}
	.st35{fill:none;stroke:#BBC7CC;stroke-width:8;stroke-miterlimit:10;}
	.st36{fill:none;stroke:#BBC7CC;stroke-width:8;stroke-linecap:round;stroke-miterlimit:10;}
	.st37{fill:none;stroke:#BBC7CC;stroke-linecap:round;stroke-miterlimit:10;}
	.st38{fill:#3F225D;}
	.st39{fill:#6D4F8D;}
	.st40{fill:#08A37D;}
	.st41{fill:#BBC7CC;}
</style>
<g>
	<g>
		<g class="st0">
			<path class="st1" d="M1901.7,253.2c0,307.4-249.2,556.5-556.5,556.5S788.7,560.6,788.7,253.2"/>
			<circle class="st2" cx="1345.2" cy="809.7" r="38.2"/>
			<circle class="st2" cx="1623.5" cy="735.2" r="38.2"/>
			<circle class="st2" cx="1827.2" cy="531.5" r="38.2"/>
			<circle class="st2" cx="863.2" cy="531.5" r="38.2"/>
			<circle class="st2" cx="1066.9" cy="735.2" r="38.2"/>
		</g>
		<g>
			<g>
				<path class="st3" d="M1901.7,251.2c0,307.4-249.2,556.5-556.5,556.5S788.7,558.6,788.7,251.2"/>
				<circle class="st4" cx="1345.2" cy="807.7" r="38.2"/>
				<circle class="st4" cx="1623.5" cy="733.2" r="38.2"/>
				<circle class="st4" cx="1827.2" cy="529.5" r="38.2"/>
				<circle class="st4" cx="863.2" cy="529.5" r="38.2"/>
				<circle class="st4" cx="1066.9" cy="733.2" r="38.2"/>
			</g>
		</g>
	</g>
	<g>
		<g class="st0">
			<circle class="st2" cx="1345.2" cy="808.7" r="26.9"/>
		</g>
		<g>
			<circle class="st5" cx="1345.2" cy="807.7" r="26.9"/>
		</g>
	</g>
	<g>
		<g class="st0">
			<circle class="st2" cx="1623.5" cy="734.2" r="26.9"/>
		</g>
		<g>
			<circle class="st6" cx="1623.5" cy="733.2" r="26.9"/>
		</g>
	</g>
	<g>
		<g class="st0">
			<circle class="st2" cx="1827.2" cy="530.5" r="26.9"/>
		</g>
		<g>
			<circle class="st7" cx="1827.2" cy="529.5" r="26.9"/>
		</g>
	</g>
	<g>
		<g class="st0">
			<circle class="st2" cx="1901.7" cy="252.2" r="26.9"/>
		</g>
		<g>
			<circle class="st8" cx="1901.7" cy="251.2" r="26.9"/>
		</g>
	</g>
	<g>
		<g class="st0">
			<circle class="st2" cx="788.7" cy="252.2" r="26.9"/>
		</g>
		<g>
			<circle class="st9" cx="788.7" cy="251.2" r="26.9"/>
		</g>
	</g>
	<g>
		<g class="st0">
			<circle class="st2" cx="863.2" cy="530.5" r="26.9"/>
		</g>
		<g>
			<circle class="st10" cx="863.2" cy="529.5" r="26.9"/>
		</g>
	</g>
	<g>
		<g class="st0">
			<circle class="st2" cx="1066.9" cy="734.2" r="26.9"/>
		</g>
		<g>
			<circle class="st11" cx="1066.9" cy="733.2" r="26.9"/>
		</g>
	</g>
</g>
<g>
	<g>
		<g>
			<line class="st12" x1="1345.2" y1="869.8" x2="1345.2" y2="869.8"/>
			<line class="st13" x1="1345.2" y1="871.8" x2="1345.2" y2="1122.3"/>
			<line class="st12" x1="1345.2" y1="1123.3" x2="1345.2" y2="1123.3"/>
		</g>
	</g>
	<circle class="st4" cx="1345.2" cy="1123.3" r="14"/>
</g>
<g>
	<g>
		<g>
			<line class="st12" x1="1654.5" y1="786.9" x2="1654.5" y2="786.9"/>
			<line class="st13" x1="1655.5" y1="788.6" x2="1780.7" y2="1005.6"/>
			<line class="st12" x1="1781.2" y1="1006.4" x2="1781.2" y2="1006.4"/>
		</g>
	</g>
	<circle class="st4" cx="1781.2" cy="1006.4" r="14"/>
</g>
<g>
	<g>
		<g>
			<line class="st12" x1="1880.9" y1="560.5" x2="1880.9" y2="560.5"/>
			<line class="st13" x1="1882.6" y1="561.5" x2="2099.5" y2="686.7"/>
			<line class="st12" x1="2100.4" y1="687.2" x2="2100.4" y2="687.2"/>
		</g>
	</g>
	<circle class="st4" cx="2100.4" cy="687.2" r="14"/>
</g>
<g>
	<g>
		<g>
			<line class="st12" x1="809.5" y1="560.5" x2="809.5" y2="560.5"/>
			<line class="st13" x1="807.8" y1="561.5" x2="590.9" y2="686.7"/>
			<line class="st12" x1="590" y1="687.2" x2="590" y2="687.2"/>
		</g>
	</g>
	<circle class="st4" cx="590" cy="687.2" r="14"/>
</g>
<g>
	<g>
		<g>
			<line class="st12" x1="1035.9" y1="786.9" x2="1035.9" y2="786.9"/>
			<line class="st13" x1="1034.9" y1="788.6" x2="909.7" y2="1005.6"/>
			<line class="st12" x1="909.2" y1="1006.4" x2="909.2" y2="1006.4"/>
		</g>
	</g>
	<circle class="st4" cx="909.2" cy="1006.4" r="14"/>
</g>
<g>
	<text transform="matrix(1 0 0 1 1005.3146 263.3305)" class="st4 st14 st15 st16">DATACITE</text>
</g>
<rect x="1007.8" y="308.9" class="st17" width="693.7" height="286.5"/>
<text transform="matrix(1 0 0 1 1044.1447 400.5531)"><tspan x="0" y="0" class="st4 st14 st18 st19">METADATA </tspan><tspan x="72.1" y="128.6" class="st4 st14 st18 st19">SCHEMA</tspan></text>
<g>
	<circle class="st5" cx="1345.2" cy="35.4" r="9.4"/>
	<circle class="st6" cx="1383.4" cy="35.4" r="9.4"/>
	<circle class="st7" cx="1421.6" cy="35.4" r="9.4"/>
	<circle class="st11" cx="1307" cy="35.4" r="9.4"/>
	<circle class="st10" cx="1268.7" cy="35.4" r="9.4"/>
	<circle class="st8" cx="1459.9" cy="35.4" r="9.4"/>
	<circle class="st9" cx="1230.5" cy="35.4" r="9.4"/>
</g>
<g>
	<g>
		<text transform="matrix(1 0 0 1 594.2545 1551.6898)" class="st4 st14 st20 st21">VERSION 2.2</text>
		<rect x="571" y="1631.9" class="st17" width="422.2" height="97"/>
		<text transform="matrix(1 0 0 1 601.4948 1657.4501)"><tspan x="0" y="0" class="st4 st14 st22">URLs as related identifiers, </tspan><tspan x="-24.4" y="35.7" class="st4 st14 st22">multiple new contributor roles </tspan><tspan x="46.5" y="71.5" class="st4 st14 st22">and resource types.</tspan></text>
	</g>
	<g>
		<circle class="st11" cx="743.9" cy="1797.9" r="9.4"/>
		<circle class="st11" cx="782.1" cy="1797.9" r="9.4"/>
		<circle class="st11" cx="820.3" cy="1797.9" r="9.4"/>
		<circle class="st11" cx="858.5" cy="1797.9" r="9.4"/>
		<circle class="st11" cx="896.8" cy="1797.9" r="9.4"/>
		<circle class="st11" cx="705.6" cy="1797.9" r="9.4"/>
		<circle class="st11" cx="667.4" cy="1797.9" r="9.4"/>
	</g>
	<g>
		<text transform="matrix(1 0 0 1 665.025 1873.9633)" class="st23 st14 st20">JUL 2011</text>
		<ellipse class="st24" cx="780.6" cy="1895.4" rx="38.2" ry="7.6"/>
	</g>
</g>
<g>
	<g>
		<text transform="matrix(1 0 0 1 1722.7638 1551.6898)" class="st4 st14 st20 st21">VERSION 3.1</text>
		<rect x="1670.7" y="1629" class="st17" width="482.1" height="139.9"/>
		<text transform="matrix(1 0 0 1 1673.9962 1654.4579)"><tspan x="0" y="0" class="st4 st14 st22">Support for creator and contributor </tspan><tspan x="49" y="35.7" class="st4 st14 st22">affiliations. New relation and  </tspan><tspan x="23.4" y="71.5" class="st4 st14 st22">contributor types. Extended the </tspan><tspan x="73.7" y="107.2" class="st4 st14 st22"> list of related identifiers.</tspan></text>
	</g>
	<g>
		<circle class="st6" cx="1870.1" cy="1812.8" r="9.4"/>
		<circle class="st6" cx="1908.3" cy="1812.8" r="9.4"/>
		<circle class="st6" cx="1946.5" cy="1812.8" r="9.4"/>
		<circle class="st6" cx="1984.8" cy="1812.8" r="9.4"/>
		<circle class="st6" cx="2023" cy="1812.8" r="9.4"/>
		<circle class="st6" cx="1831.9" cy="1812.8" r="9.4"/>
		<circle class="st6" cx="1793.6" cy="1812.8" r="9.4"/>
	</g>
	<g>
		<text transform="matrix(1 0 0 1 1780.4615 1888.8304)" class="st23 st14 st20">OCT 2014</text>
		<ellipse class="st24" cx="1909.8" cy="1910.3" rx="38.2" ry="7.6"/>
	</g>
</g>
<g>
	<g>
		<text transform="matrix(1 0 0 1 1153.6246 1701.5995)" class="st4 st14 st20 st21">VERSION 3.0</text>
		<rect x="1134.1" y="1781.8" class="st17" width="434.5" height="141.3"/>
		<text transform="matrix(1 0 0 1 1162.3253 1807.2748)"><tspan x="0" y="0" class="st4 st14 st22">New GeoLocation property, </tspan><tspan x="-23.2" y="35.7" class="st4 st14 st22">more contributor, resource and </tspan><tspan x="14" y="71.5" class="st4 st14 st22">relation types, support for </tspan><tspan x="-9.5" y="107.2" class="st4 st14 st22">PMID. Multiple rights are now </tspan></text>
	</g>
	<g>
		<circle class="st5" cx="1307" cy="1974.6" r="9.4"/>
		<circle class="st5" cx="1345.2" cy="1974.6" r="9.4"/>
		<circle class="st5" cx="1383.4" cy="1974.6" r="9.4"/>
		<circle class="st5" cx="1421.6" cy="1974.6" r="9.4"/>
		<circle class="st5" cx="1459.9" cy="1974.6" r="9.4"/>
		<circle class="st5" cx="1268.7" cy="1974.6" r="9.4"/>
		<circle class="st5" cx="1230.5" cy="1974.6" r="9.4"/>
	</g>
	<g>
		<text transform="matrix(1 0 0 1 1224.5358 2047.2523)" class="st23 st14 st20">JUL 2013</text>
		<ellipse class="st24" cx="1343.7" cy="2063.8" rx="38.2" ry="7.6"/>
	</g>
</g>
<g>
	<g>
		<circle class="st25" cx="1345.2" cy="1386.2" r="210.9"/>
		<circle class="st26" cx="1345.2" cy="1369.8" r="210.9"/>
		<g>
			<g class="st0">
				<circle class="st2" cx="1345.2" cy="1379.5" r="204.3"/>
			</g>
			<g>
				<circle class="st5" cx="1345.2" cy="1377.5" r="204.3"/>
			</g>
		</g>
	</g>
</g>
<g>
	<g>
		<circle class="st27" cx="782.1" cy="1235.3" r="210.9"/>
		<circle class="st28" cx="782.1" cy="1218.9" r="210.9"/>
		<g>
			<g class="st0">
				<circle class="st2" cx="782.1" cy="1228.6" r="204.3"/>
			</g>
			<g>
				<circle class="st11" cx="782.1" cy="1226.6" r="204.3"/>
			</g>
		</g>
	</g>
</g>
<g>
	<g>
		<circle class="st29" cx="2382.7" cy="690.5" r="209.9"/>
		<circle class="st30" cx="2382.7" cy="674.3" r="209.9"/>
		<g>
			<g class="st0">
				<circle class="st2" cx="2382.7" cy="683.9" r="203.4"/>
			</g>
			<g>
				<circle class="st7" cx="2382.7" cy="681.9" r="203.4"/>
			</g>
		</g>
	</g>
</g>
<g>
	<g>
		<circle class="st31" cx="305.4" cy="732.3" r="209.9"/>
		<circle class="st32" cx="305.4" cy="716" r="209.9"/>
		<g>
			<g class="st0">
				<circle class="st2" cx="305.4" cy="725.6" r="203.4"/>
			</g>
			<g>
				<circle class="st10" cx="305.4" cy="723.6" r="203.4"/>
			</g>
		</g>
	</g>
	<g>
		<g class="st0">
			<circle class="st33" cx="305.8" cy="725.1" r="111.1"/>
			<line class="st34" x1="305.8" y1="614" x2="305.8" y2="652.7"/>
			<line class="st34" x1="305.8" y1="799.9" x2="305.8" y2="838.5"/>
			<line class="st34" x1="193.5" y1="726.3" x2="232.2" y2="726.3"/>
			<line class="st34" x1="379.4" y1="726.3" x2="418" y2="726.3"/>
			<line class="st34" x1="305.8" y1="725.1" x2="265.1" y2="684.5"/>
			<line class="st34" x1="305.8" y1="725.1" x2="368.2" y2="662.7"/>
		</g>
		<g>
			<g>
				<circle class="st35" cx="305.8" cy="724.1" r="111.1"/>
				<line class="st36" x1="305.8" y1="613" x2="305.8" y2="651.7"/>
				<line class="st36" x1="305.8" y1="798.9" x2="305.8" y2="837.5"/>
				<line class="st36" x1="193.5" y1="725.3" x2="232.2" y2="725.3"/>
				<line class="st36" x1="379.4" y1="725.3" x2="418" y2="725.3"/>
				<g>
					<line class="st36" x1="305.8" y1="724.1" x2="265.1" y2="683.5"/>
					<line class="st36" x1="305.8" y1="724.1" x2="368.2" y2="661.7"/>
				</g>
			</g>
		</g>
	</g>
	<line class="st37" x1="305.8" y1="724.1" x2="305.8" y2="675"/>
</g>
<g>
	<g>
		<circle class="st38" cx="1908.3" cy="1235.3" r="210.9"/>
		<circle class="st39" cx="1908.3" cy="1218.9" r="210.9"/>
		<g>
			<g class="st0">
				<circle class="st2" cx="1908.3" cy="1228.6" r="204.3"/>
			</g>
			<g>
				<circle class="st6" cx="1908.3" cy="1226.6" r="204.3"/>
			</g>
		</g>
	</g>
	<g>
		<g class="st0">
			<path class="st33" d="M1971,1202.3c0-35.9-26.6-62.5-62.5-62.5c-35,0-62,28.8-62.8,60.9c-0.4,15.9,5.1,30.4,14.5,41.6
				c6.7,8.1,10.1,18.5,10.1,29v4.5c0,13.6,11,24.7,24.7,24.7h26.8c13.6,0,24.7-11,24.7-24.7v-4.5c0-10.9,4-21.4,10.8-29.9
				C1965.8,1230.7,1971,1217.1,1971,1202.3z"/>
			<line class="st34" x1="1886.1" y1="1315.2" x2="1930.6" y2="1315.2"/>
			<line class="st34" x1="1886.1" y1="1328.2" x2="1930.6" y2="1328.2"/>
			<line class="st34" x1="1896.5" y1="1341.2" x2="1920.1" y2="1341.2"/>
			<path class="st34" d="M1913.5,1300.4v-98.3c0-5.9,4.8-10.6,10.6-10.6c5.9,0,10.6,4.8,10.6,10.6s-4.8,10.6-10.6,10.6h-31.5
				c-5.9,0-10.6-4.8-10.6-10.6s4.8-10.6,10.6-10.6c5.9,0,10.6,4.8,10.6,10.6v98.3"/>
			<line class="st34" x1="1908.5" y1="1125.8" x2="1908.5" y2="1101.6"/>
			<line class="st34" x1="1882.1" y1="1130.4" x2="1873.8" y2="1107.7"/>
			<line class="st34" x1="1858.9" y1="1143.7" x2="1843.3" y2="1125.2"/>
			<line class="st34" x1="1841.6" y1="1164.2" x2="1820.7" y2="1152.1"/>
			<line class="st34" x1="1934.9" y1="1130.4" x2="1943.1" y2="1107.7"/>
			<line class="st34" x1="1958.1" y1="1143.7" x2="1973.6" y2="1125.2"/>
			<line class="st34" x1="1975.3" y1="1164.2" x2="1996.3" y2="1152.1"/>
		</g>
		<g>
			<g>
				<g>
					<path class="st35" d="M1971,1201.3c0-35.9-26.6-62.5-62.5-62.5c-35,0-62,28.8-62.8,60.9c-0.4,15.9,5.1,30.4,14.5,41.6
						c6.7,8.1,10.1,18.5,10.1,29v4.5c0,13.6,11,24.7,24.7,24.7h26.8c13.6,0,24.7-11,24.7-24.7v-4.5c0-10.9,4-21.4,10.8-29.9
						C1965.8,1229.7,1971,1216.1,1971,1201.3z"/>
					<line class="st36" x1="1886.1" y1="1314.2" x2="1930.6" y2="1314.2"/>
					<line class="st36" x1="1886.1" y1="1327.2" x2="1930.6" y2="1327.2"/>
					<line class="st36" x1="1896.5" y1="1340.2" x2="1920.1" y2="1340.2"/>
					<path class="st36" d="M1913.5,1299.4v-98.3c0-5.9,4.8-10.6,10.6-10.6c5.9,0,10.6,4.8,10.6,10.6s-4.8,10.6-10.6,10.6h-31.5
						c-5.9,0-10.6-4.8-10.6-10.6s4.8-10.6,10.6-10.6c5.9,0,10.6,4.8,10.6,10.6v98.3"/>
				</g>
				<g>
					<line class="st36" x1="1908.5" y1="1124.8" x2="1908.5" y2="1100.6"/>
					<line class="st36" x1="1882.1" y1="1129.4" x2="1873.8" y2="1106.7"/>
					<line class="st36" x1="1858.9" y1="1142.7" x2="1843.3" y2="1124.2"/>
					<line class="st36" x1="1841.6" y1="1163.2" x2="1820.7" y2="1151.1"/>
					<line class="st36" x1="1934.9" y1="1129.4" x2="1943.1" y2="1106.7"/>
					<line class="st36" x1="1958.1" y1="1142.7" x2="1973.6" y2="1124.2"/>
					<line class="st36" x1="1975.3" y1="1163.2" x2="1996.3" y2="1151.1"/>
				</g>
			</g>
		</g>
	</g>
</g>
<g>
	<g>
		<text transform="matrix(1 0 0 1 2229.6206 996.3405)" class="st4 st14 st20 st21">VERSION 4.0</text>
		<rect x="2183.8" y="1073.6" class="st17" width="492.6" height="190.3"/>
		<text transform="matrix(1 0 0 1 2254.9702 1099.0739)"><tspan x="0" y="0" class="st4 st14 st22">New mandatory property:  </tspan><tspan x="-28.6" y="35.7" class="st4 st14 st22">resource type. New model for  </tspan><tspan x="-29.7" y="71.5" class="st4 st14 st22">funding information. Extended  </tspan><tspan x="-15.6" y="107.2" class="st4 st14 st22">support for names, identifier  </tspan><tspan x="28" y="142.9" class="st4 st14 st22">type and geolocation.</tspan></text>
	</g>
	<g>
		<circle class="st7" cx="2384.1" cy="1301.3" r="9.4"/>
		<circle class="st7" cx="2422.4" cy="1301.3" r="9.4"/>
		<circle class="st7" cx="2460.6" cy="1301.3" r="9.4"/>
		<circle class="st7" cx="2498.8" cy="1301.3" r="9.4"/>
		<circle class="st7" cx="2537" cy="1301.3" r="9.4"/>
		<circle class="st7" cx="2345.9" cy="1301.3" r="9.4"/>
		<circle class="st7" cx="2307.7" cy="1301.3" r="9.4"/>
	</g>
	<g>
		<text transform="matrix(1 0 0 1 2281.1621 1377.3839)" class="st23 st14 st20">SEPT 2016</text>
		<ellipse class="st24" cx="2423.9" cy="1398.8" rx="38.2" ry="7.6"/>
	</g>
</g>
<g>
	<g>
		<text transform="matrix(1 0 0 1 114.5001 1043.432)" class="st4 st14 st20 st21">VERSION 2.0</text>
		<rect x="94.3" y="1123.7" class="st17" width="422.2" height="144.6"/>
		<text transform="matrix(1 0 0 1 148.6662 1149.1923)"><tspan x="0" y="0" class="st4 st14 st22">OAI PMH compatibility,  </tspan><tspan x="-26.8" y="35.7" class="st4 st14 st22">enforcement of mandatory </tspan><tspan x="-46.1" y="71.5" class="st4 st14 st22">properties and improved date </tspan><tspan x="98" y="107.2" class="st4 st14 st22">property</tspan></text>
	</g>
	<g>
		<circle class="st10" cx="267.2" cy="1316.5" r="9.4"/>
		<circle class="st10" cx="305.4" cy="1316.5" r="9.4"/>
		<circle class="st10" cx="343.6" cy="1316.5" r="9.4"/>
		<circle class="st10" cx="381.8" cy="1316.5" r="9.4"/>
		<circle class="st10" cx="420.1" cy="1316.5" r="9.4"/>
		<circle class="st10" cx="228.9" cy="1316.5" r="9.4"/>
		<circle class="st10" cx="190.7" cy="1316.5" r="9.4"/>
	</g>
	<g>
		<text transform="matrix(1 0 0 1 176.7545 1392.5336)" class="st23 st14 st20">Mar 2011</text>
		<ellipse class="st24" cx="303.9" cy="1414" rx="38.2" ry="7.6"/>
	</g>
</g>
<g>
	<g class="st0">
		<path class="st2" d="M780.6,1249.6c-22.8,0-42.8-28-42.8-59.9c0-14.7,4.5-28.1,12.7-37.5c7.8-9.1,18.5-14,30-14
			c11.5,0,22.2,5,30,14c8.2,9.5,12.7,22.8,12.7,37.5C823.3,1221.6,803.4,1249.6,780.6,1249.6z"/>
		<path class="st2" d="M780.6,1142.1c10.4,0,19.9,4.5,27,12.7c7.6,8.7,11.7,21.1,11.7,34.9c0,14.3-4.4,28.8-12.2,39.7
			c-7.5,10.5-16.9,16.2-26.5,16.2c-9.7,0-19.1-5.8-26.5-16.2c-7.8-10.9-12.2-25.3-12.2-39.7c0-13.8,4.2-26.2,11.7-34.9
			C760.6,1146.6,770.2,1142.1,780.6,1142.1 M780.6,1134.1c-25.8,0-46.8,22.6-46.8,55.6c0,33,20.9,63.9,46.8,63.9
			c25.8,0,46.8-30.9,46.8-63.9C827.3,1156.7,806.4,1134.1,780.6,1134.1L780.6,1134.1z"/>
		<path class="st2" d="M818.8,1253.7c7.6,4.4,24.9,16,43.7,40.1c-9.6,10.7-37.6,36.8-81.9,36.8c-23,0-44.4-6.9-63.4-20.4
			c-8.6-6.1-14.8-12.3-18.5-16.3c18.7-23.9,36.1-35.7,43.7-40.1l33.1,26.9l5,4.1l5-4.1L818.8,1253.7 M817.8,1244.1l-37.2,30.2
			l-37.2-30.2c0,0-26.5,11.4-54.9,49.8c0,0,32,44.5,92.1,44.5c60.1,0,92.1-44.5,92.1-44.5C844.4,1255.6,817.8,1244.1,817.8,1244.1
			L817.8,1244.1z"/>
	</g>
	<g>
		<g>
			<g>
				<path class="st40" d="M780.6,1248.6c-22.8,0-42.8-28-42.8-59.9c0-14.7,4.5-28.1,12.7-37.5c7.8-9.1,18.5-14,30-14
					c11.5,0,22.2,5,30,14c8.2,9.5,12.7,22.8,12.7,37.5C823.3,1220.6,803.4,1248.6,780.6,1248.6z"/>
				<g>
					<path class="st41" d="M780.6,1141.1c10.4,0,19.9,4.5,27,12.7c7.6,8.7,11.7,21.1,11.7,34.9c0,14.3-4.4,28.8-12.2,39.7
						c-7.5,10.5-16.9,16.2-26.5,16.2c-9.7,0-19.1-5.8-26.5-16.2c-7.8-10.9-12.2-25.3-12.2-39.7c0-13.8,4.2-26.2,11.7-34.9
						C760.6,1145.6,770.2,1141.1,780.6,1141.1 M780.6,1133.1c-25.8,0-46.8,22.6-46.8,55.6c0,33,20.9,63.9,46.8,63.9
						c25.8,0,46.8-30.9,46.8-63.9C827.3,1155.7,806.4,1133.1,780.6,1133.1L780.6,1133.1z"/>
				</g>
			</g>
			<g>
				<path class="st41" d="M818.8,1252.7c7.6,4.4,24.9,16,43.7,40.1c-9.6,10.7-37.6,36.8-81.9,36.8c-23,0-44.4-6.9-63.4-20.4
					c-8.6-6.1-14.8-12.3-18.5-16.3c18.7-23.9,36.1-35.7,43.7-40.1l33.1,26.9l5,4.1l5-4.1L818.8,1252.7 M817.8,1243.1l-37.2,30.2
					l-37.2-30.2c0,0-26.5,11.4-54.9,49.8c0,0,32,44.5,92.1,44.5c60.1,0,92.1-44.5,92.1-44.5C844.4,1254.6,817.8,1243.1,817.8,1243.1
					L817.8,1243.1z"/>
			</g>
		</g>
	</g>
</g>
<g>
	<g class="st0">
		<circle class="st33" cx="1345.5" cy="1381.4" r="111.1"/>
		<path class="st33" d="M1303.7,1278.5c0,0-69.1,92.6,0,205.9"/>
		<path class="st33" d="M1387.2,1278.5c0,0,69.1,92.6,0,205.9"/>
		<path class="st33" d="M1242.5,1423.2c0,0,92.6,69.1,205.9,0"/>
		<path class="st33" d="M1242.5,1339.7c0,0,92.6-69.1,205.9,0"/>
		<line class="st33" x1="1345.5" y1="1270.3" x2="1345.5" y2="1492.5"/>
		<line class="st33" x1="1456.6" y1="1381.4" x2="1234.4" y2="1381.4"/>
	</g>
	<g>
		<g>
			<circle class="st35" cx="1345.5" cy="1380.4" r="111.1"/>
			<path class="st35" d="M1303.7,1277.5c0,0-69.1,92.6,0,205.9"/>
			<path class="st35" d="M1387.2,1277.5c0,0,69.1,92.6,0,205.9"/>
			<path class="st35" d="M1242.5,1422.2c0,0,92.6,69.1,205.9,0"/>
			<path class="st35" d="M1242.5,1338.7c0,0,92.6-69.1,205.9,0"/>
			<line class="st35" x1="1345.5" y1="1269.3" x2="1345.5" y2="1491.5"/>
			<line class="st35" x1="1456.6" y1="1380.4" x2="1234.4" y2="1380.4"/>
		</g>
	</g>
</g>
<g>
	<circle class="st35" cx="2384.6" cy="678.9" r="111.1"/>
	<g>
		<g>
			<path class="st41" d="M2468,714.5c0-0.1,0-0.2,0-0.3c0-0.1,0-0.2-0.1-0.3c0-0.1,0-0.2-0.1-0.2c0-0.1-0.1-0.2-0.1-0.2
				c0-0.1-0.1-0.2-0.1-0.2c0-0.1-0.1-0.2-0.2-0.2s-0.1-0.2-0.2-0.2s-0.1-0.1-0.2-0.2c-0.1-0.1-0.1-0.1-0.2-0.2s-0.2-0.1-0.2-0.2
				c-0.1,0-0.1-0.1-0.2-0.1l-33.5-16.5c-0.1-0.1-0.2-0.1-0.3-0.1c-0.6-0.2-14.4-5-25.7,0l-24.9,9c-0.1,0-0.2,0.1-0.2,0.1
				c-3.6,1.6-5.5,5.3-4.7,9.2c0.8,3.8,3.9,6.5,7.7,6.7c0,0,0,0,0.1,0c0.2,0,1.3-0.1,12.7-0.8c4.9-0.3,10.1-0.6,10.5-0.7
				c1.4-0.1,2.6-1.2,2.6-2.7c0-1.5-1.2-2.8-2.7-2.8c-0.2,0-0.2,0-10.8,0.7c-5.3,0.3-11.3,0.7-12.3,0.8c-1.9-0.2-2.4-1.8-2.5-2.2
				c-0.2-1,0.1-2.4,1.5-3.1l24.9-9c0.1,0,0.1-0.1,0.2-0.1c8.7-4,20.2-0.4,21.5,0l14.9,7.3l-8.2,19.3c-4-2.5-9-3.2-13.5-1.8
				l-33.5,10.1c-4,1.2-8.4,0.8-12.1-1.2l-52.4-28.4c-1.9-1-1.3-2.8-1.1-3.2c0.2-0.5,1-2,2.9-1.5l40.7,13.6c1.4,0.5,3-0.3,3.5-1.7
				c0.5-1.5-0.3-3-1.7-3.5l-40.8-13.6c-0.1,0-0.1,0-0.2,0c-4-1.1-8,0.9-9.5,4.7c-1.6,3.9-0.1,8,3.6,10.1l52.4,28.5
				c4.9,2.7,10.9,3.3,16.2,1.7l33.5-10.1c3.1-0.9,6.4-0.5,9.1,1.2l17.1,10.7c0.1,0.1,0.2,0.1,0.2,0.1c0,0,0,0,0.1,0h0
				c0,0,0.1,0,0.1,0c0.1,0,0.2,0.1,0.2,0.1c0,0,0.1,0,0.1,0c0.1,0,0.2,0,0.2,0.1c0,0,0.1,0,0.1,0c0.1,0,0.2,0,0.3,0l0,0l0,0l0,0l0,0
				c0.1,0,0.2,0,0.4,0c0,0,0.1,0,0.1,0c0.1,0,0.2,0,0.2-0.1c0,0,0.1,0,0.1,0c0.1,0,0.2-0.1,0.2-0.1c0,0,0.1,0,0.1-0.1
				c0.1,0,0.1-0.1,0.2-0.1c0,0,0.1-0.1,0.1-0.1c0.1,0,0.1-0.1,0.2-0.1c0,0,0.1-0.1,0.1-0.1c0.1-0.1,0.1-0.1,0.2-0.2
				c0,0,0.1-0.1,0.1-0.1c0.1-0.1,0.1-0.1,0.1-0.2c0,0,0.1-0.1,0.1-0.1c0,0,0,0,0,0c0,0,0-0.1,0-0.1c0-0.1,0.1-0.2,0.1-0.2l12.1-25.9
				c0-0.1,0.1-0.2,0.1-0.2c0-0.1,0.1-0.2,0.1-0.2c0-0.1,0-0.2,0-0.3c0-0.1,0-0.2,0-0.3C2468,714.7,2468,714.6,2468,714.5z
				 M2461.6,715.9l-9.7,20.6l-9.8-6.2l8.4-19.9L2461.6,715.9z"/>
			<path class="st41" d="M2365.8,652.4h7.7c3.2,0,5.7,2.6,5.7,5.7s-2.6,5.7-5.7,5.7h-13.9c-1.5,0-2.8,1.2-2.8,2.8s1.2,2.8,2.8,2.8
				h7.3v5.4c0,1.5,1.2,2.8,2.8,2.8c1.5,0,2.8-1.2,2.8-2.8v-5.4h1.1c6.2,0,11.2-5,11.2-11.2c0-6.2-5-11.2-11.2-11.2h-7.7
				c-3.2,0-5.7-2.6-5.7-5.7c0-3.2,2.6-5.7,5.7-5.7h13.6c1.5,0,2.8-1.2,2.8-2.8s-1.2-2.8-2.8-2.8h-7v-5.3c0-1.5-1.2-2.8-2.8-2.8
				c-1.5,0-2.8,1.2-2.8,2.8v5.3h-1.1c-6.2,0-11.2,5-11.2,11.2C2354.6,647.4,2359.7,652.4,2365.8,652.4z"/>
			<path class="st41" d="M2369.7,694c24.5,0,44.4-19.9,44.4-44.4c0-24.4-19.9-44.4-44.4-44.4c-24.4,0-44.4,19.9-44.4,44.4
				C2325.3,674.1,2345.2,694,2369.7,694z M2369.7,610.8c21.4,0,38.9,17.4,38.9,38.9c0,21.4-17.4,38.9-38.9,38.9
				c-21.4,0-38.9-17.4-38.9-38.9C2330.8,628.2,2348.3,610.8,2369.7,610.8z"/>
		</g>
	</g>
</g>
</svg>
