<?xml version="1.0" encoding="utf-8"?>
<!-- Generator: Adobe Illustrator 19.1.0, SVG Export Plug-In . SVG Version: 6.00 Build 0)  -->
<svg version="1.1" id="Layer_1" xmlns="http://www.w3.org/2000/svg" xmlns:xlink="http://www.w3.org/1999/xlink" x="0px" y="0px"
	 viewBox="-10 107 769.4 399" style="enable-background:new -10 107 769.4 399;" xml:space="preserve">
<style type="text/css">
	.st0{fill:#FBB416;}
	.st1{fill:#D3D3D3;}
	.st2{fill:none;}
	.st3{font-family:'Raleway-Light';}
	.st4{font-size:18px;}
	.st5{fill:#FEFDFC;}
	.st6{clip-path:url(#SVGID_2_);}
	.st7{clip-path:url(#SVGID_4_);}
	.st8{fill:#FAB417;}
	.st9{fill:#241F20;}
	.st10{fill:#231F20;}
	.st11{fill:url(#SVGID_5_);}
	.st12{fill:#424143;}
	.st13{fill:url(#SVGID_6_);}
	.st14{fill:url(#SVGID_7_);}
	.st15{opacity:0.5;fill:url(#SVGID_8_);enable-background:new    ;}
	.st16{opacity:0.5;fill:url(#SVGID_9_);enable-background:new    ;}
	.st17{fill:#FFFFFF;}
</style>
<circle class="st0" cx="377.9" cy="317.9" r="93.6"/>
<g id="_x31_gt9NH.tif">
</g>
<path class="st1" d="M684.9,192.2H511.4c-4.9,0-8.9-4-8.9-8.9v-33.8c0-4.9,4-8.9,8.9-8.9h173.5c4.9,0,8.9,4,8.9,8.9v33.7
	C693.8,188.2,689.8,192.2,684.9,192.2z"/>
<rect x="502.4" y="158.4" class="st2" width="191.3" height="15.5"/>
<text transform="matrix(1 0 0 1 552.4665 171.5621)" class="st3 st4">HTTPS URI </text>
<path class="st1" d="M720.4,321.2H546.8c-4.9,0-8.9-4-8.9-8.9v-33.7c0-4.9,4-8.9,8.9-8.9h173.5c4.9,0,8.9,4,8.9,8.9v33.7
	C729.3,317.2,725.3,321.2,720.4,321.2z"/>
<rect x="537.9" y="287.4" class="st2" width="191.3" height="15.5"/>
<text transform="matrix(1 0 0 1 582.3582 300.5621)" class="st3 st4">Uses doi.org</text>
<path class="st1" d="M684.9,458H511.4c-4.9,0-8.9-4-8.9-8.9v-33.7c0-4.9,4-8.9,8.9-8.9h173.5c4.9,0,8.9,4,8.9,8.9v33.7
	C693.8,454,689.8,458,684.9,458z"/>
<rect x="502.4" y="424.3" class="st2" width="191.3" height="15.5"/>
<text transform="matrix(1 0 0 1 546.1217 437.4049)" class="st3 st4">base32 suffix</text>
<path class="st1" d="M253.6,193.2H80.1c-4.9,0-8.9-4-8.9-8.9v-33.8c0-4.9,4-8.9,8.9-8.9h173.5c4.9,0,8.9,4,8.9,8.9v33.7
	C262.6,189.2,258.6,193.2,253.6,193.2z"/>
<rect x="71.2" y="159.4" class="st2" width="191.3" height="15.5"/>
<text transform="matrix(1 0 0 1 97.8287 172.5705)" class="st3 st4">Human readable</text>
<path class="st1" d="M197.7,323.2H24.2c-4.9,0-8.9-4-8.9-8.9v-33.7c0-4.9,4-8.9,8.9-8.9h173.5c4.9,0,8.9,4,8.9,8.9v33.7
	C206.6,319.2,202.6,323.2,197.7,323.2z"/>
<rect x="15.3" y="289.4" class="st2" width="191.3" height="15.5"/>
<text transform="matrix(1 0 0 1 41.2997 302.542)" class="st3 st4">No semantic info</text>
<path class="st1" d="M253.6,459H80.1c-4.9,0-8.9-4-8.9-8.9v-33.7c0-4.9,4-8.9,8.9-8.9h173.5c4.9,0,8.9,4,8.9,8.9v33.7
	C262.6,455,258.6,459,253.6,459z"/>
<rect x="71.2" y="425.3" class="st2" width="191.3" height="15.5"/>
<text transform="matrix(1 0 0 1 97.315 438.4133)" class="st3 st4">Easy to generate</text>
<ellipse class="st5" cx="395.6" cy="337.2" rx="30.6" ry="28.9"/>
<g>
	<defs>
		<rect id="SVGID_1_" x="295.3" y="272.3" width="157.1" height="93.9"/>
	</defs>
	<clipPath id="SVGID_2_">
		<use xlink:href="#SVGID_1_"  style="overflow:visible;"/>
	</clipPath>
	<g class="st6">
		<defs>
			<rect id="SVGID_3_" x="298.4" y="277.1" width="155.1" height="88.6"/>
		</defs>
		<clipPath id="SVGID_4_">
			<use xlink:href="#SVGID_3_"  style="overflow:visible;"/>
		</clipPath>
		<g class="st7">
			<path class="st8" d="M343.5,315.1c-0.4-0.2-0.6-0.2-0.7-0.3c-5-4.3-11-5.6-17.4-5.3c-8.8,0.4-15.9,4.1-20.8,11.6
				c-5.2,8.1-5.7,16.9-3.5,26c4.5,18,26.3,24.8,40.2,12.5c0.6-0.5,1.2-1,2.1-1.8c0,2,0.1,3.5,0,5c-0.1,1.2,0.4,1.6,1.6,1.5
				c4.7-0.1,9.4-0.1,14.1,0c1.4,0,1.8-0.4,1.8-1.8c-0.1-12.6,0-25.2,0-37.8c0-14.2,0-28.4,0-42.6c0-1.5-0.3-2.1-1.9-2
				c-4.6,0.1-9.2,0.1-13.8,0c-1.4,0-1.8,0.4-1.8,1.8c0.1,10.4,0,20.8,0,31.2C343.5,313.8,343.5,314.3,343.5,315.1z M431.9,337.3
				c0,8.5,0,16.9,0,25.4c0,1.3,0.3,1.6,1.6,1.6c4.8-0.1,9.5-0.1,14.3,0c1.1,0,1.6-0.2,1.6-1.5c0-16.9,0-33.8,0-50.7
				c0-1.2-0.4-1.6-1.6-1.6c-4.7,0.1-9.3,0.1-14,0c-1.5,0-2,0.3-2,1.9C431.9,320.8,431.9,329.1,431.9,337.3z M440.5,300.9
				c5.8,0,10.7-4.7,10.7-10.5c0-5.8-4.8-10.7-10.6-10.7c-5.7,0-10.5,4.7-10.6,10.5C430,296.1,434.7,300.9,440.5,300.9z"/>
			<path class="st8" d="M408.2,337.5c0,7.6-5.8,13.8-12.8,13.7c-7.2-0.1-13-6.2-12.9-13.7c0-7.8,5.6-13.8,12.9-13.7
				C402.6,323.9,408.2,329.9,408.2,337.5z"/>
			<path class="st9" d="M343.5,315.1c0-0.8,0-1.4,0-2c0-10.4,0-20.8,0-31.2c0-1.4,0.4-1.8,1.8-1.8c4.6,0.1,9.2,0.1,13.8,0
				c1.6,0,1.9,0.5,1.9,2c-0.1,14.2,0,28.4,0,42.6c0,12.6,0,25.2,0,37.8c0,1.4-0.4,1.8-1.8,1.8c-4.7-0.1-9.4-0.1-14.1,0
				c-1.2,0-1.6-0.3-1.6-1.5c0.1-1.5,0-3.1,0-5c-0.9,0.8-1.5,1.3-2.1,1.8c-13.9,12.3-35.7,5.5-40.2-12.5c-2.3-9.1-1.7-17.9,3.5-26
				c4.8-7.5,12-11.1,20.8-11.6c6.4-0.3,12.4,1,17.4,5.3C342.9,314.9,343.1,315,343.5,315.1z M318.5,337.7c0,0.5,0,1.1,0,1.6
				c0.5,4.9,2.7,8.7,7.2,10.8c4.5,2.1,9,1.6,12.8-1.5c4.4-3.5,5.9-8.3,5.3-13.7c-0.8-7.3-7.6-12.3-14.8-11
				C322.7,325.1,318.4,330.6,318.5,337.7z"/>
			<path class="st5" d="M431.9,337.3c0-8.3,0-16.6,0-24.9c0-1.6,0.5-2,2-1.9c4.7,0.1,9.3,0.1,14,0c1.2,0,1.6,0.3,1.6,1.6
				c0,16.9,0,33.8,0,50.7c0,1.3-0.5,1.5-1.6,1.5c-4.8,0-9.5-0.1-14.3,0c-1.3,0-1.6-0.4-1.6-1.6C431.9,354.3,431.9,345.8,431.9,337.3
				z"/>
			<path class="st5" d="M440.5,300.9c-5.8,0-10.5-4.8-10.5-10.7c0-5.7,4.9-10.5,10.6-10.5c5.8,0,10.6,4.9,10.6,10.7
				C451.2,296.2,446.3,301,440.5,300.9z"/>
			<path class="st8" d="M318.5,337.7c0-7.1,4.2-12.6,10.6-13.8c7.2-1.3,14,3.7,14.8,11c0.6,5.5-1,10.3-5.3,13.7
				c-3.9,3.1-8.3,3.6-12.8,1.5c-4.5-2.1-6.7-6-7.2-10.8C318.4,338.8,318.5,338.2,318.5,337.7z"/>
		</g>
	</g>
</g>
<g>
	<g>
		<g>
			<g>
				<g>
					<g>
						<path class="st10" d="M472.2,245.9c-0.3,3.7,0.1,8.4,0,11.5c-1.8,1.9-3.6,2.4-4.6,4.6c-3.1,6.1-1.2,15-3.3,21.8
							c-3.7,11.9-14.7,18.4-33.9,17.5c-20.7-1-31.4-10.3-38.7-25.3c-2.4-4.9-5.4-17.2-15.1-13.2c-2.7,1.1-4,6.5-5.1,10
							c-3.8,12.1-8.1,20.8-20.3,25.5c-13.6,5.3-35.3,3.5-44.7-4.6c-4.5-3.9-7-9-8.7-14c-2.4-7.1-2.5-19.1-10.5-22
							c-0.6-3.1-1.5-8.5-1.8-11.8c20.1-3.1,44.6-2.9,66.2,1.3c8.7,1.7,17,5.3,25.4,5.9c9.1,0.7,16.5-2.9,24.6-4.8
							C423.2,243,447.1,242,472.2,245.9z"/>
						
							<radialGradient id="SVGID_5_" cx="381.867" cy="312.5561" r="93.6579" gradientTransform="matrix(0.7409 -7.460981e-04 -5.261722e-02 -0.6656 114.3265 479.021)" gradientUnits="userSpaceOnUse">
							<stop  offset="0.1471" style="stop-color:#424143"/>
							<stop  offset="0.1914" style="stop-color:#49494B"/>
							<stop  offset="0.3" style="stop-color:#595A5C"/>
							<stop  offset="0.52" style="stop-color:#595A5C"/>
							<stop  offset="0.5294" style="stop-color:#595A5C"/>
							<stop  offset="0.6283" style="stop-color:#57585A"/>
							<stop  offset="0.7131" style="stop-color:#535355"/>
							<stop  offset="0.7928" style="stop-color:#4B4A4B"/>
							<stop  offset="0.8694" style="stop-color:#3F3E3F"/>
							<stop  offset="0.943" style="stop-color:#312F30"/>
							<stop  offset="1" style="stop-color:#231F20"/>
						</radialGradient>
						<path class="st11" d="M433.9,298.7c-1.2,0-2.4,0-3.6-0.1c-9.9-0.5-17.8-2.9-24.2-7.4c-5.7-4-10.3-9.8-14.2-17.7
							c-0.4-0.7-0.7-1.6-1.1-2.6c-2-4.9-4.7-11.5-10.7-11.5c-1.2,0-2.4,0.3-3.7,0.8c-2.5,1-3.8,5.4-4.9,9c-0.1,0.4-0.2,0.8-0.3,1.1
							c-4,13-8.4,20.8-20.2,25.4c-4.9,1.9-11.3,3-17.8,3c-11,0-21.1-2.9-26.5-7.5c-3.8-3.2-6.5-7.6-8.6-13.9
							c-0.6-1.8-1.1-3.9-1.6-6.2c-1.4-6.4-3-13.7-9-16c-0.1-0.8-0.3-1.5-0.4-2.2c-0.4-2.2-0.9-4.4-1.1-6.8
							c14.7-2.3,27.6-3.4,39.2-3.4c9.6,0,18.6,0.8,26.5,2.4c3.4,0.7,6.9,1.7,10.2,2.6c5,1.4,10.2,2.9,15.3,3.3
							c0.8,0.1,1.6,0.1,2.4,0.1l0,0c5.7,0,10.8-1.6,15.7-3.1c2.1-0.7,4.3-1.3,6.6-1.9c9.5-2.3,19.7-3.4,31.4-3.4
							c11.4,0,24.2,1.1,39,3.4c-0.2,2.1-0.1,3.8-0.1,5.5c0,1,0,2.1,0,3.3c-0.7,0.7-1.3,1.2-2,1.7c-1,0.8-2,1.5-2.7,2.9
							c-1.7,3.4-1.9,7.8-2.1,12c-0.1,3.3-0.3,6.8-1.2,9.8C460.3,292.8,450.2,298.7,433.9,298.7z M431,246.9c-1.2,0-2.4,0-3.6,0.1
							c-12.2,0.5-24.6,1.6-29.5,8.1c-2.7,3.5-3,8.4-1,14.8c3.7,11.7,9.4,18.6,18.6,22.5c5.4,2.3,11.3,3.5,17,3.5
							c10.7,0,20-4.2,24.2-10.9c4.5-7.2,6.6-23.1,0.3-30.4C452.8,249.7,443.3,246.9,431,246.9z"/>
						<path class="st12" d="M325,243c9.6,0,18.5,0.8,26.4,2.3c3.4,0.7,6.8,1.7,10.1,2.6c5,1.4,10.2,2.9,15.3,3.3
							c0.8,0.1,1.6,0.1,2.4,0.1c5.7,0,10.8-1.6,15.8-3.1c2.1-0.7,4.3-1.3,6.6-1.9c9.5-2.3,19.7-3.4,31.3-3.4
							c11.3,0,23.9,1.1,38.6,3.3c-0.1,2-0.1,3.7-0.1,5.2c0,1,0,2.1,0,3.2c-0.6,0.7-1.3,1.1-1.9,1.6c-1,0.8-2,1.6-2.7,3
							c-1.8,3.5-1.9,7.9-2.1,12.1c-0.1,3.3-0.3,6.8-1.2,9.7c-1.7,5.5-5,9.8-9.8,12.7c-5,3-11.7,4.5-19.9,4.5c-1.2,0-2.4,0-3.6-0.1
							c-9.8-0.5-17.7-2.9-24-7.3c-5.7-4-10.3-9.7-14.1-17.6c-0.4-0.7-0.7-1.6-1.1-2.6c-1.9-4.7-4.8-11.7-11-11.7
							c-1.2,0-2.5,0.3-3.9,0.8c-2.6,1.1-4,5.6-5.1,9.2c-0.1,0.4-0.2,0.8-0.3,1.1c-1.6,5.3-3.6,10.8-6.9,15.4
							c-3.2,4.5-7.4,7.6-13.1,9.8c-4.9,1.9-11.2,2.9-17.7,2.9c-10.9,0-21-2.8-26.3-7.4c-3.7-3.2-6.4-7.6-8.5-13.7
							c-0.6-1.8-1.1-3.9-1.6-6.1c-1.4-6.4-3-13.7-9-16.2c-0.1-0.7-0.3-1.4-0.4-2.1c-0.4-2.1-0.8-4.2-1.1-6.5
							C300.8,244.1,313.5,243,325,243L325,243z M333,296.1c6.1,0,12-1.3,17.2-3.8c8.1-3.9,12.3-10,14.2-21.1
							c0.1-0.3,0.1-0.6,0.2-0.9c0.6-3.3,1.5-7.8-0.3-11.8c-4.9-11.2-27.3-12-34.1-12c-1.5,0-3,0-4.4,0.1c-11.1,0.5-21.9,2-25.3,10
							c-2.1,4.9-1.1,11,0.1,15.2c1.4,5,3.8,10,6.3,13.3C312.1,291.9,322.1,296.1,333,296.1L333,296.1z M432.6,296.2
							c10.8,0,20.2-4.2,24.4-11c2.3-3.7,3.9-9.4,4.2-15.1c0.4-6.7-1-12.2-4-15.7c-4.3-5-13.9-7.8-26.3-7.8c-1.2,0-2.4,0-3.6,0.1
							c-12.3,0.5-24.7,1.6-29.7,8.2c-2.7,3.6-3.1,8.5-1,15.1c3.7,11.8,9.5,18.8,18.8,22.7C420.9,294.9,426.8,296.2,432.6,296.2
							L432.6,296.2z M325,242.4c-13.7,0-27.3,1.5-39.5,3.4c0.3,3.4,1,6.3,1.6,9.4c8,3,8.1,15,10.5,22c1.7,5,4.2,10.1,8.7,14
							c5.8,5,16.3,7.6,26.7,7.6c6.4,0,12.8-1,18-3c12.3-4.7,16.6-13.4,20.3-25.5c1.1-3.5,2.4-8.9,5.1-10c1.3-0.5,2.5-0.8,3.6-0.8
							c6.9,0,9.4,9.7,11.5,14c7.2,14.9,18,24.2,38.7,25.3c1.3,0.1,2.5,0.1,3.7,0.1c17,0,26.8-6.4,30.2-17.6
							c2.1-6.8,0.2-15.7,3.3-21.8c1.1-2.1,2.8-2.7,4.6-4.6c0.1-3.2-0.1-5.5,0.2-9.1c-13.5-2.1-26.7-3.4-39.3-3.4
							c-10.9,0-21.5,1-31.4,3.4c-7.4,1.8-14.2,4.9-22.2,4.9c-0.8,0-1.6,0-2.4-0.1c-8.5-0.7-16.8-4.2-25.4-5.9
							C342.9,243.1,333.9,242.4,325,242.4L325,242.4z M332.9,295.6c-10.4,0-20.3-3.9-25.6-10.7c-4.6-5.9-9.8-19.6-6.3-28
							c3-7.1,12.2-9.1,24.8-9.7c1.5-0.1,2.9-0.1,4.4-0.1c14.3,0,29.7,3.1,33.5,11.7c1.8,4.2,0.7,9,0.1,12.4
							c-1.8,9.8-5.2,16.5-13.9,20.7C344.5,294.4,338.7,295.6,332.9,295.6L332.9,295.6z M432.5,295.6c-5.4,0-11.2-1.1-16.9-3.5
							c-9.9-4.2-15.2-11.8-18.5-22.3c-6.1-19.3,10.1-21.7,30.2-22.6c1.2-0.1,2.4-0.1,3.6-0.1c11.1,0,21.2,2.3,25.8,7.6
							c6.4,7.4,4,23.2-0.3,30.1C452.4,291.4,443.2,295.6,432.5,295.6L432.5,295.6z"/>
						
							<radialGradient id="SVGID_6_" cx="328.5664" cy="327.9719" r="43.798" gradientTransform="matrix(0.7267 6.703159e-05 -5.172813e-02 -0.6656 111.0448 489.6194)" gradientUnits="userSpaceOnUse">
							<stop  offset="0" style="stop-color:#4B4B4B"/>
							<stop  offset="0.1471" style="stop-color:#494949"/>
							<stop  offset="0.2827" style="stop-color:#444444"/>
							<stop  offset="0.4135" style="stop-color:#3B3B3B"/>
							<stop  offset="0.5294" style="stop-color:#303030"/>
							<stop  offset="0.6512" style="stop-color:#2F2F2E"/>
							<stop  offset="0.7558" style="stop-color:#2A2A2A"/>
							<stop  offset="0.8539" style="stop-color:#212121"/>
							<stop  offset="0.9476" style="stop-color:#111212"/>
							<stop  offset="1" style="stop-color:#010101"/>
						</radialGradient>
						<path class="st13" d="M325.3,245.4c16.6-0.7,36.3,2.3,40.7,12.4c2,4.5,0.7,9.7,0.1,13.3c-1.9,10.6-5.6,17.8-15,22.3
							c-16,7.6-36.8,3.9-45.7-7.5c-4.9-6.3-10.6-21.1-6.8-30.1C301.9,248.1,311.8,246,325.3,245.4z"/>
						
							<radialGradient id="SVGID_7_" cx="460.6022" cy="328.0253" r="43.8633" gradientTransform="matrix(0.7267 6.703159e-05 -5.172813e-02 -0.6656 111.0448 489.6194)" gradientUnits="userSpaceOnUse">
							<stop  offset="0" style="stop-color:#4B4B4B"/>
							<stop  offset="0.1471" style="stop-color:#494949"/>
							<stop  offset="0.2827" style="stop-color:#444444"/>
							<stop  offset="0.4135" style="stop-color:#3B3B3B"/>
							<stop  offset="0.5294" style="stop-color:#303030"/>
							<stop  offset="0.6512" style="stop-color:#2F2F2E"/>
							<stop  offset="0.7558" style="stop-color:#2A2A2A"/>
							<stop  offset="0.8539" style="stop-color:#212121"/>
							<stop  offset="0.9476" style="stop-color:#111212"/>
							<stop  offset="1" style="stop-color:#010101"/>
						</radialGradient>
						<path class="st14" d="M427.3,245.2c13.4-0.6,26.3,1.8,31.7,8.1c6.9,8,4.3,25.1-0.3,32.6c-6.7,10.7-25.9,15.6-44.2,7.8
							c-10.7-4.5-16.4-12.8-20-24.1C388,248.8,405.5,246.2,427.3,245.2z"/>
						
							<linearGradient id="SVGID_8_" gradientUnits="userSpaceOnUse" x1="302.7709" y1="385.0494" x2="302.7709" y2="359.813" gradientTransform="matrix(0.98 -3.598190e-02 -3.671362e-02 -0.9993 49.7435 644.0703)">
							<stop  offset="0" style="stop-color:#FFFFFF"/>
							<stop  offset="0.331" style="stop-color:#7E7B7B"/>
							<stop  offset="0.6175" style="stop-color:#3B3A39"/>
							<stop  offset="0.8213" style="stop-color:#161615"/>
							<stop  offset="0.9235" style="stop-color:#010101"/>
						</linearGradient>
						<path class="st15" d="M325.8,247.2c15.4-0.7,33.7,2.1,37.9,11.6c1.8,4.2,0.7,9,0.1,12.4c-1.8,9.8-66.3-5.9-62.8-14.3
							C304.1,249.7,313.3,247.7,325.8,247.2z"/>
						
							<linearGradient id="SVGID_9_" gradientUnits="userSpaceOnUse" x1="398.4143" y1="381.4807" x2="398.4143" y2="359.0469" gradientTransform="matrix(0.98 -3.598190e-02 -3.671362e-02 -0.9993 49.7435 644.0703)">
							<stop  offset="0" style="stop-color:#FFFFFF"/>
							<stop  offset="0.331" style="stop-color:#7E7B7B"/>
							<stop  offset="0.6175" style="stop-color:#3B3A39"/>
							<stop  offset="0.8213" style="stop-color:#161615"/>
							<stop  offset="0.9235" style="stop-color:#010101"/>
						</linearGradient>
						<path class="st16" d="M427.4,247.2c12.4-0.5,24.3,1.7,29.4,7.5c6.4,7.4-56.3,25.6-59.6,15
							C391.1,250.5,407.3,248.1,427.4,247.2z"/>
					</g>
				</g>
			</g>
			<polygon class="st17" points="292.2,247.9 293.4,249.7 295.7,250 294.2,251.5 294.7,253.6 292.6,252.6 290.6,253.6 290.8,251.5 
				289.1,250 291.3,249.7 			"/>
			<polygon class="st17" points="465.7,247.7 466.8,249.6 469.2,249.9 467.6,251.3 468.2,253.4 466,252.4 464,253.4 464.3,251.3 
				462.5,249.9 464.8,249.6 			"/>
		</g>
	</g>
</g>
</svg>
