<?xml version="1.0" encoding="utf-8"?>
<!-- Generator: Adobe Illustrator 19.1.0, SVG Export Plug-In . SVG Version: 6.00 Build 0)  -->
<svg version="1.1" id="Layer_1" xmlns="http://www.w3.org/2000/svg" xmlns:xlink="http://www.w3.org/1999/xlink" x="0px" y="0px"
	 viewBox="0 0 991.9 764.9" style="enable-background:new 0 0 991.9 764.9;" xml:space="preserve">
<style type="text/css">
	.st0{fill:none;stroke:#EE2D2F;stroke-width:7.3975;stroke-linecap:round;stroke-linejoin:bevel;stroke-miterlimit:10;}
	.st1{fill:none;stroke:#2DA9E1;stroke-width:7.3975;stroke-linecap:round;stroke-linejoin:bevel;stroke-miterlimit:10;}
	.st2{fill:none;stroke:#8CC541;stroke-width:7.3975;stroke-linecap:round;stroke-linejoin:bevel;stroke-miterlimit:10;}
	.st3{fill:none;stroke:#F79226;stroke-width:7.3975;stroke-linecap:round;stroke-linejoin:bevel;stroke-miterlimit:10;}
	.st4{fill:none;stroke:#67308F;stroke-width:7.3975;stroke-linecap:round;stroke-linejoin:bevel;stroke-miterlimit:10;}
	.st5{fill:none;stroke:#F27BA9;stroke-width:7.3975;stroke-linecap:round;stroke-linejoin:bevel;stroke-miterlimit:10;}
	.st6{fill:#333333;}
	.st7{font-family:'Raleway-Light';}
	.st8{font-size:25.26px;}
	.st9{fill:#2DA9E1;}
	.st10{font-size:25.034px;}
	.st11{fill:#EE2D2F;}
	.st12{fill:#67308F;}
	.st13{font-family:'Raleway-Regular';}
	.st14{font-size:10px;}
	.st15{fill:none;}
	.st16{font-family:'Raleway-ExtraLight';}
	.st17{fill:none;stroke:#EE2D2F;stroke-width:2.2106;stroke-miterlimit:10;}
	.st18{fill:#F79226;}
	.st19{fill:#F27BA9;}
	.st20{fill:#7EC247;}
	.st21{fill:#2FA8E0;}
	.st22{fill:#FFFFFF;stroke:#F79327;stroke-width:3;stroke-miterlimit:10;}
	.st23{fill:#FFFFFF;stroke:#8CC541;stroke-width:3;stroke-miterlimit:10;}
	.st24{fill:none;stroke:#2FA8E0;stroke-miterlimit:10;}
	.st25{fill:#FFFFFF;stroke:#2FA8E0;stroke-width:2;stroke-miterlimit:10;}
</style>
<polyline class="st0" points="372.1,26.6 310.2,133.8 381.2,257.3 438.7,257.3 496.1,257.3 567.2,133.8 559.9,121.2 "/>
<polyline class="st1" points="381.2,488.1 438.7,488.1 496.1,488.1 567.2,611.6 505.3,718.8 "/>
<polyline class="st2" points="567.2,382.3 511.4,479 583.9,603.4 705.9,603.4 717,584.2 "/>
<polyline class="st3" points="511.4,266.4 567.2,363.1 711.5,363.1 727.1,336 "/>
<polyline class="st4" points="310.1,382.3 366,479 293.5,603.4 182.4,603.4 "/>
<polyline class="st5" points="171.4,142 293.5,142 366,266.4 310.1,363.1 165.9,363.1 158.8,350.9 "/>
<g>
	<text transform="matrix(1 0 0 1 368.7436 350.7406)" class="st6 st7 st8">SOFTWARE</text>
	<text transform="matrix(1 0 0 1 367.6195 415.2733)" class="st6 st7 st8">PRINCIPLES</text>
	<text transform="matrix(1 0 0 1 380.8686 382.6122)" class="st6 st7 st8">CITATION</text>
</g>
<g>
	<text transform="matrix(1 0 0 1 604.7177 689.8113)"><tspan x="0" y="0" class="st9 st7 st10">... yet there is little support for  </tspan><tspan x="-56.6" y="30" class="st9 st7 st10">its acknowledgement and citation. </tspan></text>
</g>
<g>
	<text transform="matrix(1 0 0 1 46.0745 45.5243)"><tspan x="0" y="0" class="st11 st7 st10">Software is a critical part  </tspan><tspan x="0" y="30" class="st11 st7 st10">of modern research...</tspan></text>
</g>
<g>
	<g>
		<text transform="matrix(1 0 0 1 87.9644 493.1554)" class="st12 st13 st14">PERSISTENCE</text>
		<rect x="46.1" y="504.1" class="st15" width="108.9" height="107.2"/>
		<text transform="matrix(1 0 0 1 56.6907 511.4323)"><tspan x="0" y="0" class="st6 st16 st14">Unique identifiers and </tspan><tspan x="5.5" y="12" class="st6 st16 st14">metadata describing </tspan><tspan x="9.9" y="24" class="st6 st16 st14">the software and its </tspan><tspan x="16.8" y="36" class="st6 st16 st14">disposition should </tspan><tspan x="-0.3" y="48" class="st6 st16 st14">persist—even beyond </tspan><tspan x="17.3" y="60" class="st6 st16 st14">the lifespan of the </tspan><tspan x="-6.9" y="72" class="st6 st16 st14">software they describe.</tspan></text>
	</g>
	<g>
		<path class="st12" d="M240,538.9c-3.6-8.4-9.8-14.6-18.3-18.2c-4.2-1.8-8.7-2.7-13.3-2.7c-4.7,0-9.1,0.9-13.3,2.7
			c-8.4,3.6-14.6,9.7-18.2,18.2c-1.8,4.2-2.7,8.7-2.7,13.3c0,4.6,0.9,9.1,2.7,13.3c3.6,8.4,9.8,14.6,18.2,18.2
			c4.2,1.8,8.7,2.7,13.3,2.7c4.6,0,9.1-0.9,13.3-2.7c8.5-3.6,14.6-9.8,18.3-18.2c1.8-4.2,2.7-8.7,2.7-13.3
			C242.8,547.5,241.8,543.1,240,538.9L240,538.9z M234.5,567.3c-2.7,4.6-6.4,8.3-11,11c-4.6,2.7-9.7,4.1-15.1,4.1
			c-4.1,0-8-0.8-11.7-2.4c-3.7-1.6-6.9-3.7-9.6-6.4c-2.7-2.7-4.8-5.9-6.4-9.6c-1.6-3.7-2.4-7.6-2.4-11.7c0-5.4,1.3-10.5,4-15.1
			c2.7-4.6,6.4-8.3,11-11c4.6-2.7,9.6-4.1,15.1-4.1c5.4,0,10.5,1.4,15.1,4.1c4.6,2.7,8.3,6.4,11,11c2.7,4.6,4,9.6,4,15.1
			S237.3,562.7,234.5,567.3L234.5,567.3z M234.5,567.3"/>
		<path class="st12" d="M210.6,551.9v-19.4c0-1.2-1-2.1-2.2-2.1c-1.1,0-2.1,0.9-2.1,2.1v19.7c0,0,0.1,0.2,0.1,0.3
			c-0.1,0.7,0.1,1.2,0.6,1.7l11.2,11.2c0.8,0.8,2.1,0.8,2.9,0c0.9-0.9,0.8-2.1,0-2.9L210.6,551.9z M210.6,551.9"/>
	</g>
</g>
<g>
	<g>
		<g>
			<path class="st17" d="M574.3,58.5"/>
		</g>
		<g>
			<text transform="matrix(1 0 0 1 588.601 35.3185)" class="st11 st13 st14">IMPORTANCE</text>
			<rect x="588.6" y="45.5" class="st15" width="184.5" height="123.2"/>
			<text transform="matrix(1 0 0 1 588.602 52.8244)"><tspan x="0" y="0" class="st6 st16 st14">Software should be considered a </tspan><tspan x="0" y="12" class="st6 st16 st14">legitimate and citable product of </tspan><tspan x="0" y="24" class="st6 st16 st14">research. Software citations should be </tspan><tspan x="0" y="36" class="st6 st16 st14">accorded the same importance in the </tspan><tspan x="0" y="48" class="st6 st16 st14">scholarly record as citations of other </tspan><tspan x="0" y="60" class="st6 st16 st14">research products. They should be </tspan><tspan x="0" y="72" class="st6 st16 st14">included in the metadata of the citing </tspan><tspan x="0" y="84" class="st6 st16 st14">work. Software should be cited on the </tspan><tspan x="0" y="96" class="st6 st16 st14">same basis as any other research </tspan><tspan x="0" y="108" class="st6 st16 st14">product such as a paper or a book.</tspan></text>
		</g>
	</g>
	<g>
		<g>
			<path class="st11" d="M576,93.4v-10h-4.8c-0.5-1.8-1.2-3.5-2.1-5.2l3.4-3.4l-7.1-7.1l-3.4,3.4c-1.6-1-3.3-1.7-5.1-2.1v-4.8h-10
				V69c-1.8,0.5-3.5,1.2-5.1,2.1l-3.4-3.4l-7.1,7.1l3.4,3.4c-1,1.6-1.7,3.3-2.1,5.2h-4.8v10h4.8c0.5,1.8,1.2,3.5,2.1,5.1l-3.4,3.4
				l7.1,7.1l3.4-3.4c1.6,1,3.3,1.7,5.1,2.1v4.8h10v-4.8c1.8-0.5,3.5-1.2,5.1-2.1l3.4,3.4l7.1-7.1l-3.4-3.4c1-1.6,1.7-3.3,2.1-5.1
				H576z M569.7,92.3c-0.5,2.1-1.3,4.1-2.4,5.9l-0.4,0.6l3.1,3.1l-4.6,4.6l-3.1-3.1l-0.6,0.4c-1.8,1.2-3.8,2-5.9,2.4l-0.7,0.1v4.4
				h-6.5v-4.4l-0.7-0.1c-2.1-0.5-4.1-1.3-5.9-2.4l-0.6-0.4l-3.1,3.1l-4.6-4.6l3.1-3.1l-0.4-0.6c-1.2-1.8-2-3.8-2.4-5.9l-0.2-0.7
				h-4.4v-6.5h4.4l0.1-0.7c0.5-2.1,1.3-4.1,2.4-5.9l0.4-0.6l-3.1-3.1l4.6-4.6l3.1,3.1l0.6-0.4c1.8-1.2,3.8-2,5.9-2.4l0.7-0.1V66h6.5
				v4.4l0.7,0.1c2.1,0.5,4.1,1.3,5.9,2.4l0.6,0.4l3.1-3.1l4.6,4.6l-3.1,3.1l0.4,0.6c1.2,1.8,2,3.8,2.4,5.9l0.1,0.7h4.4v6.5h-4.4
				L569.7,92.3z M569.7,92.3"/>
			<path class="st11" d="M551.9,81.4c-3.8,0-6.9,3.1-6.9,6.9c0,3.8,3.1,6.9,6.9,6.9c3.8,0,6.9-3.1,6.9-6.9
				C558.9,84.5,555.7,81.4,551.9,81.4L551.9,81.4z M551.9,93.6c-2.9,0-5.2-2.3-5.2-5.2c0-2.9,2.3-5.2,5.2-5.2c2.9,0,5.2,2.3,5.2,5.2
				C557.1,91.2,554.8,93.6,551.9,93.6L551.9,93.6z M551.9,93.6"/>
		</g>
		<g>
			<path class="st11" d="M534.8,114.9v-8.5h-4c-0.4-1.5-1-3-1.8-4.4l2.9-2.9l-6-6l-2.9,2.9c-1.4-0.8-2.8-1.4-4.4-1.8v-4.1h-8.5v4.1
				c-1.5,0.4-3,1-4.4,1.8l-2.9-2.9l-6,6l2.9,2.9c-0.8,1.4-1.4,2.8-1.8,4.4h-4v8.5h4c0.4,1.5,1,3,1.8,4.4l-2.9,2.9l6,6l2.9-2.9
				c1.4,0.8,2.8,1.4,4.4,1.8v4h8.5v-4c1.5-0.4,3-1,4.4-1.8l2.9,2.9l6-6l-2.9-2.9c0.8-1.4,1.4-2.8,1.8-4.4H534.8z M529.5,114
				c-0.4,1.8-1.1,3.5-2.1,5l-0.3,0.5l2.7,2.7l-3.9,3.9l-2.7-2.7l-0.5,0.3c-1.5,1-3.2,1.7-5,2.1l-0.6,0.1v3.7h-5.5V126l-0.6-0.1
				c-1.8-0.4-3.5-1.1-5-2.1l-0.5-0.3l-2.7,2.6l-3.9-3.9l2.7-2.7l-0.3-0.5c-1-1.5-1.7-3.2-2.1-5l-0.1-0.6h-3.7v-5.5h3.8l0.1-0.6
				c0.4-1.8,1.1-3.5,2.1-5l0.3-0.5l-2.7-2.7l3.9-3.9l2.7,2.7l0.5-0.3c1.5-1,3.2-1.7,5-2.1l0.6-0.1v-3.7h5.5v3.7l0.6,0.1
				c1.8,0.4,3.5,1.1,5,2.1l0.5,0.3l2.7-2.7l3.9,3.9l-2.7,2.7l0.3,0.5c1,1.5,1.7,3.2,2.1,5l0.1,0.6h3.8v5.5h-3.8L529.5,114z
				 M529.5,114"/>
			<path class="st11" d="M514.3,104.8c-3.3,0-5.9,2.7-5.9,5.9c0,3.3,2.7,5.9,5.9,5.9c3.3,0,5.9-2.7,5.9-5.9
				C520.2,107.4,517.6,104.8,514.3,104.8L514.3,104.8z M514.3,115.1c-2.4,0-4.4-2-4.4-4.4c0-2.4,2-4.4,4.4-4.4c2.4,0,4.4,2,4.4,4.4
				C518.7,113.1,516.8,115.1,514.3,115.1L514.3,115.1z M514.3,115.1"/>
		</g>
	</g>
</g>
<g>
	<g>
		<g>
			<text transform="matrix(1 0 0 1 742.4034 211.3432)" class="st18 st13 st14">UNIQUE IDENTIFICATION</text>
			<rect x="742.4" y="220.3" class="st15" width="134.8" height="108.1"/>
			<text transform="matrix(1 0 0 1 742.4034 227.6137)"><tspan x="0" y="0" class="st6 st16 st14">A software citation should </tspan><tspan x="0" y="12" class="st6 st16 st14">include a method for identif</tspan><tspan x="126.1" y="12" class="st6 st16 st14">-</tspan><tspan x="0" y="24" class="st6 st16 st14">cation that is machine actio</tspan><tspan x="122.2" y="24" class="st6 st16 st14">-</tspan><tspan x="0" y="36" class="st6 st16 st14">nable, globally unique, </tspan><tspan x="0" y="48" class="st6 st16 st14">interoperable, and recogni</tspan><tspan x="119.4" y="48" class="st6 st16 st14">-</tspan><tspan x="0" y="60" class="st6 st16 st14">zed by at least a community </tspan><tspan x="0" y="72" class="st6 st16 st14">of the corresponding domain </tspan><tspan x="0" y="84" class="st6 st16 st14">experts, and preferably by </tspan><tspan x="0" y="96" class="st6 st16 st14">general public researchers.</tspan></text>
		</g>
	</g>
</g>
<g>
	<g>
		<g>
			<text transform="matrix(1 0 0 1 170.4056 210.6602)" class="st19 st13 st14">CREDIT AND ATTRIBUTION</text>
			<rect x="170.4" y="219.8" class="st15" width="117.6" height="124.6"/>
			<text transform="matrix(1 0 0 1 170.4057 227.0677)"><tspan x="0" y="0" class="st6 st16 st14">Software citations should </tspan><tspan x="0" y="12" class="st6 st16 st14">facilitate giving scholarly </tspan><tspan x="0" y="24" class="st6 st16 st14">credit and normative, </tspan><tspan x="0" y="36" class="st6 st16 st14">legal attribution to all </tspan><tspan x="0" y="48" class="st6 st16 st14">contributors to the </tspan><tspan x="0" y="60" class="st6 st16 st14">software, recognizing that </tspan><tspan x="0" y="72" class="st6 st16 st14">a single style or mecha</tspan><tspan x="104.4" y="72" class="st6 st16 st14">-</tspan><tspan x="0" y="84" class="st6 st16 st14">nism of attribution may </tspan><tspan x="0" y="96" class="st6 st16 st14">not be applicable to all </tspan><tspan x="0" y="108" class="st6 st16 st14">software.</tspan></text>
		</g>
	</g>
	<path class="st19" d="M125.9,319.7c9.1,0,16.4-9,16.4-20.1c0-11.1-7.4-20.1-16.4-20.1c-4.5,0-8.7,2.1-11.8,6
		c-3,3.8-4.7,8.8-4.7,14.1C109.4,310.7,116.8,319.7,125.9,319.7L125.9,319.7z M125.9,283.2c7,0,12.8,7.4,12.8,16.4
		c0,9.1-5.7,16.4-12.8,16.4c-7.1,0-12.8-7.4-12.8-16.4C113.1,290.6,118.8,283.2,125.9,283.2L125.9,283.2z"/>
	<path class="st19" d="M138.7,316.1c0,0-0.7,0.8-1.7,1.7c-0.7,0.7-1.6,2-1.6,2c10,0,16.1,5.7,16.1,12.8c0,1-0.8,1.8-1.8,1.8h-23.3
		h-1h-23.3c-1,0-1.8-0.8-1.8-1.8c0-7,6.1-12.8,16.1-12.8c0,0-0.9-1.3-1.6-2c-0.9-0.9-1.7-1.7-1.7-1.7c-9.1,0-16.4,7.4-16.4,16.4
		c0,3,2.5,5.5,5.5,5.5h23.3h1h23.3c3,0,5.5-2.5,5.5-5.5C155.1,323.5,147.8,316.1,138.7,316.1z"/>
	<path class="st19" d="M138.6,316.1"/>
</g>
<g>
	<g>
		<g>
			<text transform="matrix(1 0 0 1 737.7916 450.3491)" class="st20 st13 st14">ACCESSIBILITY</text>
			<rect x="737.8" y="461.9" class="st15" width="139.4" height="128.5"/>
			<text transform="matrix(1 0 0 1 737.7926 469.1606)"><tspan x="0" y="0" class="st6 st16 st14">Software citations should </tspan><tspan x="0" y="12" class="st6 st16 st14">facilitate access to the  </tspan><tspan x="0" y="24" class="st6 st16 st14">software itself and to its </tspan><tspan x="0" y="36" class="st6 st16 st14">associated metadata,  </tspan><tspan x="0" y="48" class="st6 st16 st14">documentation, data, and </tspan><tspan x="0" y="60" class="st6 st16 st14">other materials necessary for </tspan><tspan x="0" y="72" class="st6 st16 st14">both humans and machines  </tspan><tspan x="0" y="84" class="st6 st16 st14">to make informed use of the </tspan><tspan x="0" y="96" class="st6 st16 st14">referenced software</tspan></text>
		</g>
	</g>
</g>
<g>
	<g>
		<text transform="matrix(1 0 0 1 375.2312 601.2942)" class="st21 st13 st14">SPECIFICITY</text>
		<rect x="375.2" y="607.2" class="st15" width="126.9" height="180.9"/>
		<text transform="matrix(1 0 0 1 375.2322 614.5491)"><tspan x="0" y="0" class="st6 st16 st14">Software citations should </tspan><tspan x="0" y="12" class="st6 st16 st14">facilitate identification of, </tspan><tspan x="0" y="24" class="st6 st16 st14">and access to, the specific </tspan><tspan x="0" y="36" class="st6 st16 st14">version of software that was </tspan><tspan x="0" y="48" class="st6 st16 st14">used. Software identification </tspan><tspan x="0" y="60" class="st6 st16 st14">should be as specific as </tspan><tspan x="0" y="72" class="st6 st16 st14">necessary, such as using </tspan><tspan x="0" y="84" class="st6 st16 st14">version numbers, revision </tspan><tspan x="0" y="96" class="st6 st16 st14">numbers, or variants such </tspan><tspan x="0" y="108" class="st6 st16 st14">as platforms.</tspan></text>
	</g>
</g>
<g>
	<circle class="st22" cx="697" cy="299.6" r="29.8"/>
	<path class="st22" d="M709.2,287.5c-0.8-0.9-2.1-1.4-3.4-1.4l-12.7-0.1c-2.4,0-4.3,1.5-4.3,4c0,2.4,1.7,4.1,4.9,4.1l2.9,0l-12.3,12
		c-1.8,1.8-2.1,4.5-0.3,6.3c1.8,1.8,4.5,1.6,6.3-0.1l12.3-12l-0.2,3.6c0,3,1.7,4.4,4.2,4.4c2.4,0,4-2.1,4-4.5l0.1-12.7
		c0-1.3-0.4-2.4-1.3-3.2C709.4,287.8,709.3,287.6,709.2,287.5z"/>
</g>
<g>
	<path class="st23" d="M690.6,498.6v3.2h-12.3v62.9h4.6v-58.3h7.8v63.7l30.2-5.4v-8.9v-51.7L690.6,498.6z M696.2,536.8
		c-1,0-1.8-1.1-1.8-2.4c0-1.3,0.8-2.4,1.8-2.4s1.8,1.1,1.8,2.4C698,535.7,697.2,536.8,696.2,536.8z"/>
</g>
<g>
	<g>
		<circle class="st24" cx="328.4" cy="699.4" r="23.8"/>
		<line class="st24" x1="328.7" y1="670.8" x2="328.7" y2="728.1"/>
		<line class="st24" x1="300" y1="699.5" x2="357.3" y2="699.5"/>
		<rect x="324" y="694.6" class="st25" width="9.6" height="9.4"/>
		<line class="st24" x1="326.3" y1="680.3" x2="331.1" y2="680.3"/>
		<line class="st24" x1="326.4" y1="689.8" x2="331.2" y2="689.8"/>
		<line class="st24" x1="324.1" y1="685.2" x2="333.4" y2="685.2"/>
		<line class="st24" x1="309.4" y1="701.9" x2="309.4" y2="697"/>
		<line class="st24" x1="319" y1="701.8" x2="319" y2="697"/>
		<line class="st24" x1="314.3" y1="704" x2="314.3" y2="694.8"/>
		<line class="st24" x1="331.2" y1="718.4" x2="326.4" y2="718.4"/>
		<line class="st24" x1="331.1" y1="708.9" x2="326.3" y2="708.9"/>
		<line class="st24" x1="333.4" y1="713.5" x2="324.1" y2="713.5"/>
		<line class="st24" x1="348.1" y1="696.8" x2="348.1" y2="701.6"/>
		<line class="st24" x1="338.5" y1="696.9" x2="338.5" y2="701.7"/>
		<line class="st24" x1="343.2" y1="694.6" x2="343.2" y2="703.9"/>
	</g>
</g>
</svg>
